<mxfile host="app.diagrams.net" agent="Mozilla/5.0 (Windows NT 10.0; Win64; x64) AppleWebKit/537.36 (KHTML, like Gecko) Chrome/137.0.0.0 Safari/537.36 Edg/137.0.0.0" version="27.1.4" pages="3">
  <diagram name="UML Hotel Data Base" id="8B_6SkH6a5rXbOfTD-LL">
    <mxGraphModel dx="1896" dy="1078" grid="1" gridSize="10" guides="1" tooltips="1" connect="1" arrows="1" fold="1" page="1" pageScale="1" pageWidth="3300" pageHeight="4681" background="#FFFFFF" math="0" shadow="0">
      <root>
        <mxCell id="0" />
        <mxCell id="1" parent="0" />
        <mxCell id="rtVFUpa8TtXIbBBt4PkI-3" value="users" style="shape=table;startSize=30;container=1;collapsible=1;childLayout=tableLayout;fixedRows=1;rowLines=0;fontStyle=1;align=center;resizeLast=1;html=1;" parent="1" vertex="1">
          <mxGeometry x="180" y="70" width="330" height="360" as="geometry">
            <mxRectangle x="350" y="280" width="70" height="30" as="alternateBounds" />
          </mxGeometry>
        </mxCell>
        <mxCell id="rtVFUpa8TtXIbBBt4PkI-4" value="" style="shape=tableRow;horizontal=0;startSize=0;swimlaneHead=0;swimlaneBody=0;fillColor=none;collapsible=0;dropTarget=0;points=[[0,0.5],[1,0.5]];portConstraint=eastwest;top=0;left=0;right=0;bottom=1;" parent="rtVFUpa8TtXIbBBt4PkI-3" vertex="1">
          <mxGeometry y="30" width="330" height="30" as="geometry" />
        </mxCell>
        <mxCell id="rtVFUpa8TtXIbBBt4PkI-5" value="PK" style="shape=partialRectangle;connectable=0;fillColor=none;top=0;left=0;bottom=0;right=0;fontStyle=1;overflow=hidden;whiteSpace=wrap;html=1;" parent="rtVFUpa8TtXIbBBt4PkI-4" vertex="1">
          <mxGeometry width="70" height="30" as="geometry">
            <mxRectangle width="70" height="30" as="alternateBounds" />
          </mxGeometry>
        </mxCell>
        <mxCell id="rtVFUpa8TtXIbBBt4PkI-6" value="UniqueID" style="shape=partialRectangle;connectable=0;fillColor=none;top=0;left=0;bottom=0;right=0;align=left;spacingLeft=6;fontStyle=5;overflow=hidden;whiteSpace=wrap;html=1;" parent="rtVFUpa8TtXIbBBt4PkI-4" vertex="1">
          <mxGeometry x="70" width="160" height="30" as="geometry">
            <mxRectangle width="160" height="30" as="alternateBounds" />
          </mxGeometry>
        </mxCell>
        <mxCell id="rtVFUpa8TtXIbBBt4PkI-16" value="Serila" style="shape=partialRectangle;connectable=0;fillColor=none;top=0;left=0;bottom=0;right=0;align=left;spacingLeft=6;fontStyle=5;overflow=hidden;whiteSpace=wrap;html=1;" parent="rtVFUpa8TtXIbBBt4PkI-4" vertex="1">
          <mxGeometry x="230" width="100" height="30" as="geometry">
            <mxRectangle width="100" height="30" as="alternateBounds" />
          </mxGeometry>
        </mxCell>
        <mxCell id="rtVFUpa8TtXIbBBt4PkI-86" style="shape=tableRow;horizontal=0;startSize=0;swimlaneHead=0;swimlaneBody=0;fillColor=none;collapsible=0;dropTarget=0;points=[[0,0.5],[1,0.5]];portConstraint=eastwest;top=0;left=0;right=0;bottom=0;" parent="rtVFUpa8TtXIbBBt4PkI-3" vertex="1">
          <mxGeometry y="60" width="330" height="30" as="geometry" />
        </mxCell>
        <mxCell id="rtVFUpa8TtXIbBBt4PkI-87" value="Not nul.Uniquel" style="shape=partialRectangle;connectable=0;fillColor=none;top=0;left=0;bottom=0;right=0;editable=1;overflow=hidden;whiteSpace=wrap;html=1;" parent="rtVFUpa8TtXIbBBt4PkI-86" vertex="1">
          <mxGeometry width="70" height="30" as="geometry">
            <mxRectangle width="70" height="30" as="alternateBounds" />
          </mxGeometry>
        </mxCell>
        <mxCell id="rtVFUpa8TtXIbBBt4PkI-88" value="nik_name" style="shape=partialRectangle;connectable=0;fillColor=none;top=0;left=0;bottom=0;right=0;align=left;spacingLeft=6;overflow=hidden;whiteSpace=wrap;html=1;" parent="rtVFUpa8TtXIbBBt4PkI-86" vertex="1">
          <mxGeometry x="70" width="160" height="30" as="geometry">
            <mxRectangle width="160" height="30" as="alternateBounds" />
          </mxGeometry>
        </mxCell>
        <mxCell id="rtVFUpa8TtXIbBBt4PkI-89" value="Varchar" style="shape=partialRectangle;connectable=0;fillColor=none;top=0;left=0;bottom=0;right=0;align=left;spacingLeft=6;overflow=hidden;whiteSpace=wrap;html=1;" parent="rtVFUpa8TtXIbBBt4PkI-86" vertex="1">
          <mxGeometry x="230" width="100" height="30" as="geometry">
            <mxRectangle width="100" height="30" as="alternateBounds" />
          </mxGeometry>
        </mxCell>
        <mxCell id="rtVFUpa8TtXIbBBt4PkI-7" value="" style="shape=tableRow;horizontal=0;startSize=0;swimlaneHead=0;swimlaneBody=0;fillColor=none;collapsible=0;dropTarget=0;points=[[0,0.5],[1,0.5]];portConstraint=eastwest;top=0;left=0;right=0;bottom=0;" parent="rtVFUpa8TtXIbBBt4PkI-3" vertex="1">
          <mxGeometry y="90" width="330" height="30" as="geometry" />
        </mxCell>
        <mxCell id="rtVFUpa8TtXIbBBt4PkI-8" value="Not null" style="shape=partialRectangle;connectable=0;fillColor=none;top=0;left=0;bottom=0;right=0;editable=1;overflow=hidden;whiteSpace=wrap;html=1;" parent="rtVFUpa8TtXIbBBt4PkI-7" vertex="1">
          <mxGeometry width="70" height="30" as="geometry">
            <mxRectangle width="70" height="30" as="alternateBounds" />
          </mxGeometry>
        </mxCell>
        <mxCell id="rtVFUpa8TtXIbBBt4PkI-9" value="first_name" style="shape=partialRectangle;connectable=0;fillColor=none;top=0;left=0;bottom=0;right=0;align=left;spacingLeft=6;overflow=hidden;whiteSpace=wrap;html=1;" parent="rtVFUpa8TtXIbBBt4PkI-7" vertex="1">
          <mxGeometry x="70" width="160" height="30" as="geometry">
            <mxRectangle width="160" height="30" as="alternateBounds" />
          </mxGeometry>
        </mxCell>
        <mxCell id="rtVFUpa8TtXIbBBt4PkI-17" value="Varchar" style="shape=partialRectangle;connectable=0;fillColor=none;top=0;left=0;bottom=0;right=0;align=left;spacingLeft=6;overflow=hidden;whiteSpace=wrap;html=1;" parent="rtVFUpa8TtXIbBBt4PkI-7" vertex="1">
          <mxGeometry x="230" width="100" height="30" as="geometry">
            <mxRectangle width="100" height="30" as="alternateBounds" />
          </mxGeometry>
        </mxCell>
        <mxCell id="rtVFUpa8TtXIbBBt4PkI-10" value="" style="shape=tableRow;horizontal=0;startSize=0;swimlaneHead=0;swimlaneBody=0;fillColor=none;collapsible=0;dropTarget=0;points=[[0,0.5],[1,0.5]];portConstraint=eastwest;top=0;left=0;right=0;bottom=0;" parent="rtVFUpa8TtXIbBBt4PkI-3" vertex="1">
          <mxGeometry y="120" width="330" height="30" as="geometry" />
        </mxCell>
        <mxCell id="rtVFUpa8TtXIbBBt4PkI-11" value="Not null" style="shape=partialRectangle;connectable=0;fillColor=none;top=0;left=0;bottom=0;right=0;editable=1;overflow=hidden;whiteSpace=wrap;html=1;" parent="rtVFUpa8TtXIbBBt4PkI-10" vertex="1">
          <mxGeometry width="70" height="30" as="geometry">
            <mxRectangle width="70" height="30" as="alternateBounds" />
          </mxGeometry>
        </mxCell>
        <mxCell id="rtVFUpa8TtXIbBBt4PkI-12" value="last_name" style="shape=partialRectangle;connectable=0;fillColor=none;top=0;left=0;bottom=0;right=0;align=left;spacingLeft=6;overflow=hidden;whiteSpace=wrap;html=1;" parent="rtVFUpa8TtXIbBBt4PkI-10" vertex="1">
          <mxGeometry x="70" width="160" height="30" as="geometry">
            <mxRectangle width="160" height="30" as="alternateBounds" />
          </mxGeometry>
        </mxCell>
        <mxCell id="rtVFUpa8TtXIbBBt4PkI-18" value="Varchar" style="shape=partialRectangle;connectable=0;fillColor=none;top=0;left=0;bottom=0;right=0;align=left;spacingLeft=6;overflow=hidden;whiteSpace=wrap;html=1;" parent="rtVFUpa8TtXIbBBt4PkI-10" vertex="1">
          <mxGeometry x="230" width="100" height="30" as="geometry">
            <mxRectangle width="100" height="30" as="alternateBounds" />
          </mxGeometry>
        </mxCell>
        <mxCell id="rtVFUpa8TtXIbBBt4PkI-13" value="" style="shape=tableRow;horizontal=0;startSize=0;swimlaneHead=0;swimlaneBody=0;fillColor=none;collapsible=0;dropTarget=0;points=[[0,0.5],[1,0.5]];portConstraint=eastwest;top=0;left=0;right=0;bottom=0;" parent="rtVFUpa8TtXIbBBt4PkI-3" vertex="1">
          <mxGeometry y="150" width="330" height="30" as="geometry" />
        </mxCell>
        <mxCell id="rtVFUpa8TtXIbBBt4PkI-14" value="Not null" style="shape=partialRectangle;connectable=0;fillColor=none;top=0;left=0;bottom=0;right=0;editable=1;overflow=hidden;whiteSpace=wrap;html=1;" parent="rtVFUpa8TtXIbBBt4PkI-13" vertex="1">
          <mxGeometry width="70" height="30" as="geometry">
            <mxRectangle width="70" height="30" as="alternateBounds" />
          </mxGeometry>
        </mxCell>
        <mxCell id="rtVFUpa8TtXIbBBt4PkI-15" value="email" style="shape=partialRectangle;connectable=0;fillColor=none;top=0;left=0;bottom=0;right=0;align=left;spacingLeft=6;overflow=hidden;whiteSpace=wrap;html=1;" parent="rtVFUpa8TtXIbBBt4PkI-13" vertex="1">
          <mxGeometry x="70" width="160" height="30" as="geometry">
            <mxRectangle width="160" height="30" as="alternateBounds" />
          </mxGeometry>
        </mxCell>
        <mxCell id="rtVFUpa8TtXIbBBt4PkI-19" value="Varchar" style="shape=partialRectangle;connectable=0;fillColor=none;top=0;left=0;bottom=0;right=0;align=left;spacingLeft=6;overflow=hidden;whiteSpace=wrap;html=1;" parent="rtVFUpa8TtXIbBBt4PkI-13" vertex="1">
          <mxGeometry x="230" width="100" height="30" as="geometry">
            <mxRectangle width="100" height="30" as="alternateBounds" />
          </mxGeometry>
        </mxCell>
        <mxCell id="rtVFUpa8TtXIbBBt4PkI-20" style="shape=tableRow;horizontal=0;startSize=0;swimlaneHead=0;swimlaneBody=0;fillColor=none;collapsible=0;dropTarget=0;points=[[0,0.5],[1,0.5]];portConstraint=eastwest;top=0;left=0;right=0;bottom=0;" parent="rtVFUpa8TtXIbBBt4PkI-3" vertex="1">
          <mxGeometry y="180" width="330" height="30" as="geometry" />
        </mxCell>
        <mxCell id="rtVFUpa8TtXIbBBt4PkI-21" value="Not null" style="shape=partialRectangle;connectable=0;fillColor=none;top=0;left=0;bottom=0;right=0;editable=1;overflow=hidden;whiteSpace=wrap;html=1;" parent="rtVFUpa8TtXIbBBt4PkI-20" vertex="1">
          <mxGeometry width="70" height="30" as="geometry">
            <mxRectangle width="70" height="30" as="alternateBounds" />
          </mxGeometry>
        </mxCell>
        <mxCell id="rtVFUpa8TtXIbBBt4PkI-22" value="phone" style="shape=partialRectangle;connectable=0;fillColor=none;top=0;left=0;bottom=0;right=0;align=left;spacingLeft=6;overflow=hidden;whiteSpace=wrap;html=1;" parent="rtVFUpa8TtXIbBBt4PkI-20" vertex="1">
          <mxGeometry x="70" width="160" height="30" as="geometry">
            <mxRectangle width="160" height="30" as="alternateBounds" />
          </mxGeometry>
        </mxCell>
        <mxCell id="rtVFUpa8TtXIbBBt4PkI-23" value="Varchar" style="shape=partialRectangle;connectable=0;fillColor=none;top=0;left=0;bottom=0;right=0;align=left;spacingLeft=6;overflow=hidden;whiteSpace=wrap;html=1;" parent="rtVFUpa8TtXIbBBt4PkI-20" vertex="1">
          <mxGeometry x="230" width="100" height="30" as="geometry">
            <mxRectangle width="100" height="30" as="alternateBounds" />
          </mxGeometry>
        </mxCell>
        <mxCell id="rtVFUpa8TtXIbBBt4PkI-24" style="shape=tableRow;horizontal=0;startSize=0;swimlaneHead=0;swimlaneBody=0;fillColor=none;collapsible=0;dropTarget=0;points=[[0,0.5],[1,0.5]];portConstraint=eastwest;top=0;left=0;right=0;bottom=0;" parent="rtVFUpa8TtXIbBBt4PkI-3" vertex="1">
          <mxGeometry y="210" width="330" height="30" as="geometry" />
        </mxCell>
        <mxCell id="rtVFUpa8TtXIbBBt4PkI-25" value="Not null" style="shape=partialRectangle;connectable=0;fillColor=none;top=0;left=0;bottom=0;right=0;editable=1;overflow=hidden;whiteSpace=wrap;html=1;" parent="rtVFUpa8TtXIbBBt4PkI-24" vertex="1">
          <mxGeometry width="70" height="30" as="geometry">
            <mxRectangle width="70" height="30" as="alternateBounds" />
          </mxGeometry>
        </mxCell>
        <mxCell id="rtVFUpa8TtXIbBBt4PkI-26" value="pasword" style="shape=partialRectangle;connectable=0;fillColor=none;top=0;left=0;bottom=0;right=0;align=left;spacingLeft=6;overflow=hidden;whiteSpace=wrap;html=1;" parent="rtVFUpa8TtXIbBBt4PkI-24" vertex="1">
          <mxGeometry x="70" width="160" height="30" as="geometry">
            <mxRectangle width="160" height="30" as="alternateBounds" />
          </mxGeometry>
        </mxCell>
        <mxCell id="rtVFUpa8TtXIbBBt4PkI-27" value="Varchar" style="shape=partialRectangle;connectable=0;fillColor=none;top=0;left=0;bottom=0;right=0;align=left;spacingLeft=6;overflow=hidden;whiteSpace=wrap;html=1;" parent="rtVFUpa8TtXIbBBt4PkI-24" vertex="1">
          <mxGeometry x="230" width="100" height="30" as="geometry">
            <mxRectangle width="100" height="30" as="alternateBounds" />
          </mxGeometry>
        </mxCell>
        <mxCell id="rtVFUpa8TtXIbBBt4PkI-28" style="shape=tableRow;horizontal=0;startSize=0;swimlaneHead=0;swimlaneBody=0;fillColor=none;collapsible=0;dropTarget=0;points=[[0,0.5],[1,0.5]];portConstraint=eastwest;top=0;left=0;right=0;bottom=0;" parent="rtVFUpa8TtXIbBBt4PkI-3" vertex="1">
          <mxGeometry y="240" width="330" height="30" as="geometry" />
        </mxCell>
        <mxCell id="rtVFUpa8TtXIbBBt4PkI-29" value="Not null" style="shape=partialRectangle;connectable=0;fillColor=none;top=0;left=0;bottom=0;right=0;editable=1;overflow=hidden;whiteSpace=wrap;html=1;" parent="rtVFUpa8TtXIbBBt4PkI-28" vertex="1">
          <mxGeometry width="70" height="30" as="geometry">
            <mxRectangle width="70" height="30" as="alternateBounds" />
          </mxGeometry>
        </mxCell>
        <mxCell id="rtVFUpa8TtXIbBBt4PkI-30" value="role (guest,admin,staff)" style="shape=partialRectangle;connectable=0;fillColor=none;top=0;left=0;bottom=0;right=0;align=left;spacingLeft=6;overflow=hidden;whiteSpace=wrap;html=1;" parent="rtVFUpa8TtXIbBBt4PkI-28" vertex="1">
          <mxGeometry x="70" width="160" height="30" as="geometry">
            <mxRectangle width="160" height="30" as="alternateBounds" />
          </mxGeometry>
        </mxCell>
        <mxCell id="rtVFUpa8TtXIbBBt4PkI-31" value="Varchar" style="shape=partialRectangle;connectable=0;fillColor=none;top=0;left=0;bottom=0;right=0;align=left;spacingLeft=6;overflow=hidden;whiteSpace=wrap;html=1;" parent="rtVFUpa8TtXIbBBt4PkI-28" vertex="1">
          <mxGeometry x="230" width="100" height="30" as="geometry">
            <mxRectangle width="100" height="30" as="alternateBounds" />
          </mxGeometry>
        </mxCell>
        <mxCell id="rtVFUpa8TtXIbBBt4PkI-32" style="shape=tableRow;horizontal=0;startSize=0;swimlaneHead=0;swimlaneBody=0;fillColor=none;collapsible=0;dropTarget=0;points=[[0,0.5],[1,0.5]];portConstraint=eastwest;top=0;left=0;right=0;bottom=0;" parent="rtVFUpa8TtXIbBBt4PkI-3" vertex="1">
          <mxGeometry y="270" width="330" height="30" as="geometry" />
        </mxCell>
        <mxCell id="rtVFUpa8TtXIbBBt4PkI-33" value="Not null" style="shape=partialRectangle;connectable=0;fillColor=none;top=0;left=0;bottom=0;right=0;editable=1;overflow=hidden;whiteSpace=wrap;html=1;" parent="rtVFUpa8TtXIbBBt4PkI-32" vertex="1">
          <mxGeometry width="70" height="30" as="geometry">
            <mxRectangle width="70" height="30" as="alternateBounds" />
          </mxGeometry>
        </mxCell>
        <mxCell id="rtVFUpa8TtXIbBBt4PkI-34" value="created_date" style="shape=partialRectangle;connectable=0;fillColor=none;top=0;left=0;bottom=0;right=0;align=left;spacingLeft=6;overflow=hidden;whiteSpace=wrap;html=1;" parent="rtVFUpa8TtXIbBBt4PkI-32" vertex="1">
          <mxGeometry x="70" width="160" height="30" as="geometry">
            <mxRectangle width="160" height="30" as="alternateBounds" />
          </mxGeometry>
        </mxCell>
        <mxCell id="rtVFUpa8TtXIbBBt4PkI-35" value="timestamp" style="shape=partialRectangle;connectable=0;fillColor=none;top=0;left=0;bottom=0;right=0;align=left;spacingLeft=6;overflow=hidden;whiteSpace=wrap;html=1;" parent="rtVFUpa8TtXIbBBt4PkI-32" vertex="1">
          <mxGeometry x="230" width="100" height="30" as="geometry">
            <mxRectangle width="100" height="30" as="alternateBounds" />
          </mxGeometry>
        </mxCell>
        <mxCell id="t5eLvj7n7zDg2iyyytiQ-1" style="shape=tableRow;horizontal=0;startSize=0;swimlaneHead=0;swimlaneBody=0;fillColor=none;collapsible=0;dropTarget=0;points=[[0,0.5],[1,0.5]];portConstraint=eastwest;top=0;left=0;right=0;bottom=0;" vertex="1" parent="rtVFUpa8TtXIbBBt4PkI-3">
          <mxGeometry y="300" width="330" height="30" as="geometry" />
        </mxCell>
        <mxCell id="t5eLvj7n7zDg2iyyytiQ-2" value="Not null" style="shape=partialRectangle;connectable=0;fillColor=none;top=0;left=0;bottom=0;right=0;editable=1;overflow=hidden;whiteSpace=wrap;html=1;" vertex="1" parent="t5eLvj7n7zDg2iyyytiQ-1">
          <mxGeometry width="70" height="30" as="geometry">
            <mxRectangle width="70" height="30" as="alternateBounds" />
          </mxGeometry>
        </mxCell>
        <mxCell id="t5eLvj7n7zDg2iyyytiQ-3" value="updated_date" style="shape=partialRectangle;connectable=0;fillColor=none;top=0;left=0;bottom=0;right=0;align=left;spacingLeft=6;overflow=hidden;whiteSpace=wrap;html=1;" vertex="1" parent="t5eLvj7n7zDg2iyyytiQ-1">
          <mxGeometry x="70" width="160" height="30" as="geometry">
            <mxRectangle width="160" height="30" as="alternateBounds" />
          </mxGeometry>
        </mxCell>
        <mxCell id="t5eLvj7n7zDg2iyyytiQ-4" value="timestamp" style="shape=partialRectangle;connectable=0;fillColor=none;top=0;left=0;bottom=0;right=0;align=left;spacingLeft=6;overflow=hidden;whiteSpace=wrap;html=1;" vertex="1" parent="t5eLvj7n7zDg2iyyytiQ-1">
          <mxGeometry x="230" width="100" height="30" as="geometry">
            <mxRectangle width="100" height="30" as="alternateBounds" />
          </mxGeometry>
        </mxCell>
        <mxCell id="rtVFUpa8TtXIbBBt4PkI-36" style="shape=tableRow;horizontal=0;startSize=0;swimlaneHead=0;swimlaneBody=0;fillColor=none;collapsible=0;dropTarget=0;points=[[0,0.5],[1,0.5]];portConstraint=eastwest;top=0;left=0;right=0;bottom=0;" parent="rtVFUpa8TtXIbBBt4PkI-3" vertex="1">
          <mxGeometry y="330" width="330" height="30" as="geometry" />
        </mxCell>
        <mxCell id="rtVFUpa8TtXIbBBt4PkI-37" value="Not null" style="shape=partialRectangle;connectable=0;fillColor=none;top=0;left=0;bottom=0;right=0;editable=1;overflow=hidden;whiteSpace=wrap;html=1;" parent="rtVFUpa8TtXIbBBt4PkI-36" vertex="1">
          <mxGeometry width="70" height="30" as="geometry">
            <mxRectangle width="70" height="30" as="alternateBounds" />
          </mxGeometry>
        </mxCell>
        <mxCell id="rtVFUpa8TtXIbBBt4PkI-38" value="updated_date" style="shape=partialRectangle;connectable=0;fillColor=none;top=0;left=0;bottom=0;right=0;align=left;spacingLeft=6;overflow=hidden;whiteSpace=wrap;html=1;" parent="rtVFUpa8TtXIbBBt4PkI-36" vertex="1">
          <mxGeometry x="70" width="160" height="30" as="geometry">
            <mxRectangle width="160" height="30" as="alternateBounds" />
          </mxGeometry>
        </mxCell>
        <mxCell id="rtVFUpa8TtXIbBBt4PkI-39" value="timestamp" style="shape=partialRectangle;connectable=0;fillColor=none;top=0;left=0;bottom=0;right=0;align=left;spacingLeft=6;overflow=hidden;whiteSpace=wrap;html=1;" parent="rtVFUpa8TtXIbBBt4PkI-36" vertex="1">
          <mxGeometry x="230" width="100" height="30" as="geometry">
            <mxRectangle width="100" height="30" as="alternateBounds" />
          </mxGeometry>
        </mxCell>
        <mxCell id="rtVFUpa8TtXIbBBt4PkI-40" value="rooms" style="shape=table;startSize=30;container=1;collapsible=1;childLayout=tableLayout;fixedRows=1;rowLines=0;fontStyle=1;align=center;resizeLast=1;html=1;" parent="1" vertex="1">
          <mxGeometry x="490" y="510" width="330" height="270" as="geometry" />
        </mxCell>
        <mxCell id="rtVFUpa8TtXIbBBt4PkI-41" value="" style="shape=tableRow;horizontal=0;startSize=0;swimlaneHead=0;swimlaneBody=0;fillColor=none;collapsible=0;dropTarget=0;points=[[0,0.5],[1,0.5]];portConstraint=eastwest;top=0;left=0;right=0;bottom=1;" parent="rtVFUpa8TtXIbBBt4PkI-40" vertex="1">
          <mxGeometry y="30" width="330" height="30" as="geometry" />
        </mxCell>
        <mxCell id="rtVFUpa8TtXIbBBt4PkI-42" value="PK" style="shape=partialRectangle;connectable=0;fillColor=none;top=0;left=0;bottom=0;right=0;fontStyle=1;overflow=hidden;whiteSpace=wrap;html=1;" parent="rtVFUpa8TtXIbBBt4PkI-41" vertex="1">
          <mxGeometry width="80" height="30" as="geometry">
            <mxRectangle width="80" height="30" as="alternateBounds" />
          </mxGeometry>
        </mxCell>
        <mxCell id="rtVFUpa8TtXIbBBt4PkI-43" value="UniqueID" style="shape=partialRectangle;connectable=0;fillColor=none;top=0;left=0;bottom=0;right=0;align=left;spacingLeft=6;fontStyle=5;overflow=hidden;whiteSpace=wrap;html=1;" parent="rtVFUpa8TtXIbBBt4PkI-41" vertex="1">
          <mxGeometry x="80" width="100" height="30" as="geometry">
            <mxRectangle width="100" height="30" as="alternateBounds" />
          </mxGeometry>
        </mxCell>
        <mxCell id="rtVFUpa8TtXIbBBt4PkI-53" value="Serial" style="shape=partialRectangle;connectable=0;fillColor=none;top=0;left=0;bottom=0;right=0;align=left;spacingLeft=6;fontStyle=5;overflow=hidden;whiteSpace=wrap;html=1;" parent="rtVFUpa8TtXIbBBt4PkI-41" vertex="1">
          <mxGeometry x="180" width="150" height="30" as="geometry">
            <mxRectangle width="150" height="30" as="alternateBounds" />
          </mxGeometry>
        </mxCell>
        <mxCell id="rtVFUpa8TtXIbBBt4PkI-44" value="" style="shape=tableRow;horizontal=0;startSize=0;swimlaneHead=0;swimlaneBody=0;fillColor=none;collapsible=0;dropTarget=0;points=[[0,0.5],[1,0.5]];portConstraint=eastwest;top=0;left=0;right=0;bottom=0;" parent="rtVFUpa8TtXIbBBt4PkI-40" vertex="1">
          <mxGeometry y="60" width="330" height="30" as="geometry" />
        </mxCell>
        <mxCell id="rtVFUpa8TtXIbBBt4PkI-45" value="Not null,Unique" style="shape=partialRectangle;connectable=0;fillColor=none;top=0;left=0;bottom=0;right=0;editable=1;overflow=hidden;whiteSpace=wrap;html=1;" parent="rtVFUpa8TtXIbBBt4PkI-44" vertex="1">
          <mxGeometry width="80" height="30" as="geometry">
            <mxRectangle width="80" height="30" as="alternateBounds" />
          </mxGeometry>
        </mxCell>
        <mxCell id="rtVFUpa8TtXIbBBt4PkI-46" value="number" style="shape=partialRectangle;connectable=0;fillColor=none;top=0;left=0;bottom=0;right=0;align=left;spacingLeft=6;overflow=hidden;whiteSpace=wrap;html=1;" parent="rtVFUpa8TtXIbBBt4PkI-44" vertex="1">
          <mxGeometry x="80" width="100" height="30" as="geometry">
            <mxRectangle width="100" height="30" as="alternateBounds" />
          </mxGeometry>
        </mxCell>
        <mxCell id="rtVFUpa8TtXIbBBt4PkI-54" value="Varchar" style="shape=partialRectangle;connectable=0;fillColor=none;top=0;left=0;bottom=0;right=0;align=left;spacingLeft=6;overflow=hidden;whiteSpace=wrap;html=1;" parent="rtVFUpa8TtXIbBBt4PkI-44" vertex="1">
          <mxGeometry x="180" width="150" height="30" as="geometry">
            <mxRectangle width="150" height="30" as="alternateBounds" />
          </mxGeometry>
        </mxCell>
        <mxCell id="rtVFUpa8TtXIbBBt4PkI-47" value="" style="shape=tableRow;horizontal=0;startSize=0;swimlaneHead=0;swimlaneBody=0;fillColor=none;collapsible=0;dropTarget=0;points=[[0,0.5],[1,0.5]];portConstraint=eastwest;top=0;left=0;right=0;bottom=0;" parent="rtVFUpa8TtXIbBBt4PkI-40" vertex="1">
          <mxGeometry y="90" width="330" height="30" as="geometry" />
        </mxCell>
        <mxCell id="rtVFUpa8TtXIbBBt4PkI-48" value="Not null" style="shape=partialRectangle;connectable=0;fillColor=none;top=0;left=0;bottom=0;right=0;editable=1;overflow=hidden;whiteSpace=wrap;html=1;" parent="rtVFUpa8TtXIbBBt4PkI-47" vertex="1">
          <mxGeometry width="80" height="30" as="geometry">
            <mxRectangle width="80" height="30" as="alternateBounds" />
          </mxGeometry>
        </mxCell>
        <mxCell id="rtVFUpa8TtXIbBBt4PkI-49" value="description" style="shape=partialRectangle;connectable=0;fillColor=none;top=0;left=0;bottom=0;right=0;align=left;spacingLeft=6;overflow=hidden;whiteSpace=wrap;html=1;" parent="rtVFUpa8TtXIbBBt4PkI-47" vertex="1">
          <mxGeometry x="80" width="100" height="30" as="geometry">
            <mxRectangle width="100" height="30" as="alternateBounds" />
          </mxGeometry>
        </mxCell>
        <mxCell id="rtVFUpa8TtXIbBBt4PkI-55" value="TEXT" style="shape=partialRectangle;connectable=0;fillColor=none;top=0;left=0;bottom=0;right=0;align=left;spacingLeft=6;overflow=hidden;whiteSpace=wrap;html=1;" parent="rtVFUpa8TtXIbBBt4PkI-47" vertex="1">
          <mxGeometry x="180" width="150" height="30" as="geometry">
            <mxRectangle width="150" height="30" as="alternateBounds" />
          </mxGeometry>
        </mxCell>
        <mxCell id="rtVFUpa8TtXIbBBt4PkI-50" value="" style="shape=tableRow;horizontal=0;startSize=0;swimlaneHead=0;swimlaneBody=0;fillColor=none;collapsible=0;dropTarget=0;points=[[0,0.5],[1,0.5]];portConstraint=eastwest;top=0;left=0;right=0;bottom=0;" parent="rtVFUpa8TtXIbBBt4PkI-40" vertex="1">
          <mxGeometry y="120" width="330" height="30" as="geometry" />
        </mxCell>
        <mxCell id="rtVFUpa8TtXIbBBt4PkI-51" value="Not null" style="shape=partialRectangle;connectable=0;fillColor=none;top=0;left=0;bottom=0;right=0;editable=1;overflow=hidden;whiteSpace=wrap;html=1;" parent="rtVFUpa8TtXIbBBt4PkI-50" vertex="1">
          <mxGeometry width="80" height="30" as="geometry">
            <mxRectangle width="80" height="30" as="alternateBounds" />
          </mxGeometry>
        </mxCell>
        <mxCell id="rtVFUpa8TtXIbBBt4PkI-52" value="capacity" style="shape=partialRectangle;connectable=0;fillColor=none;top=0;left=0;bottom=0;right=0;align=left;spacingLeft=6;overflow=hidden;whiteSpace=wrap;html=1;" parent="rtVFUpa8TtXIbBBt4PkI-50" vertex="1">
          <mxGeometry x="80" width="100" height="30" as="geometry">
            <mxRectangle width="100" height="30" as="alternateBounds" />
          </mxGeometry>
        </mxCell>
        <mxCell id="rtVFUpa8TtXIbBBt4PkI-56" value="Integer" style="shape=partialRectangle;connectable=0;fillColor=none;top=0;left=0;bottom=0;right=0;align=left;spacingLeft=6;overflow=hidden;whiteSpace=wrap;html=1;" parent="rtVFUpa8TtXIbBBt4PkI-50" vertex="1">
          <mxGeometry x="180" width="150" height="30" as="geometry">
            <mxRectangle width="150" height="30" as="alternateBounds" />
          </mxGeometry>
        </mxCell>
        <mxCell id="rtVFUpa8TtXIbBBt4PkI-57" style="shape=tableRow;horizontal=0;startSize=0;swimlaneHead=0;swimlaneBody=0;fillColor=none;collapsible=0;dropTarget=0;points=[[0,0.5],[1,0.5]];portConstraint=eastwest;top=0;left=0;right=0;bottom=0;" parent="rtVFUpa8TtXIbBBt4PkI-40" vertex="1">
          <mxGeometry y="150" width="330" height="30" as="geometry" />
        </mxCell>
        <mxCell id="rtVFUpa8TtXIbBBt4PkI-58" value="Not null" style="shape=partialRectangle;connectable=0;fillColor=none;top=0;left=0;bottom=0;right=0;editable=1;overflow=hidden;whiteSpace=wrap;html=1;" parent="rtVFUpa8TtXIbBBt4PkI-57" vertex="1">
          <mxGeometry width="80" height="30" as="geometry">
            <mxRectangle width="80" height="30" as="alternateBounds" />
          </mxGeometry>
        </mxCell>
        <mxCell id="rtVFUpa8TtXIbBBt4PkI-59" value="price_per_night" style="shape=partialRectangle;connectable=0;fillColor=none;top=0;left=0;bottom=0;right=0;align=left;spacingLeft=6;overflow=hidden;whiteSpace=wrap;html=1;" parent="rtVFUpa8TtXIbBBt4PkI-57" vertex="1">
          <mxGeometry x="80" width="100" height="30" as="geometry">
            <mxRectangle width="100" height="30" as="alternateBounds" />
          </mxGeometry>
        </mxCell>
        <mxCell id="rtVFUpa8TtXIbBBt4PkI-60" value="Decimal(10,2)" style="shape=partialRectangle;connectable=0;fillColor=none;top=0;left=0;bottom=0;right=0;align=left;spacingLeft=6;overflow=hidden;whiteSpace=wrap;html=1;" parent="rtVFUpa8TtXIbBBt4PkI-57" vertex="1">
          <mxGeometry x="180" width="150" height="30" as="geometry">
            <mxRectangle width="150" height="30" as="alternateBounds" />
          </mxGeometry>
        </mxCell>
        <mxCell id="rtVFUpa8TtXIbBBt4PkI-61" style="shape=tableRow;horizontal=0;startSize=0;swimlaneHead=0;swimlaneBody=0;fillColor=none;collapsible=0;dropTarget=0;points=[[0,0.5],[1,0.5]];portConstraint=eastwest;top=0;left=0;right=0;bottom=0;" parent="rtVFUpa8TtXIbBBt4PkI-40" vertex="1">
          <mxGeometry y="180" width="330" height="30" as="geometry" />
        </mxCell>
        <mxCell id="rtVFUpa8TtXIbBBt4PkI-62" value="" style="shape=partialRectangle;connectable=0;fillColor=none;top=0;left=0;bottom=0;right=0;editable=1;overflow=hidden;whiteSpace=wrap;html=1;" parent="rtVFUpa8TtXIbBBt4PkI-61" vertex="1">
          <mxGeometry width="80" height="30" as="geometry">
            <mxRectangle width="80" height="30" as="alternateBounds" />
          </mxGeometry>
        </mxCell>
        <mxCell id="rtVFUpa8TtXIbBBt4PkI-63" value="is_available" style="shape=partialRectangle;connectable=0;fillColor=none;top=0;left=0;bottom=0;right=0;align=left;spacingLeft=6;overflow=hidden;whiteSpace=wrap;html=1;" parent="rtVFUpa8TtXIbBBt4PkI-61" vertex="1">
          <mxGeometry x="80" width="100" height="30" as="geometry">
            <mxRectangle width="100" height="30" as="alternateBounds" />
          </mxGeometry>
        </mxCell>
        <mxCell id="rtVFUpa8TtXIbBBt4PkI-64" value="Boolean default true" style="shape=partialRectangle;connectable=0;fillColor=none;top=0;left=0;bottom=0;right=0;align=left;spacingLeft=6;overflow=hidden;whiteSpace=wrap;html=1;" parent="rtVFUpa8TtXIbBBt4PkI-61" vertex="1">
          <mxGeometry x="180" width="150" height="30" as="geometry">
            <mxRectangle width="150" height="30" as="alternateBounds" />
          </mxGeometry>
        </mxCell>
        <mxCell id="rtVFUpa8TtXIbBBt4PkI-65" style="shape=tableRow;horizontal=0;startSize=0;swimlaneHead=0;swimlaneBody=0;fillColor=none;collapsible=0;dropTarget=0;points=[[0,0.5],[1,0.5]];portConstraint=eastwest;top=0;left=0;right=0;bottom=0;" parent="rtVFUpa8TtXIbBBt4PkI-40" vertex="1">
          <mxGeometry y="210" width="330" height="30" as="geometry" />
        </mxCell>
        <mxCell id="rtVFUpa8TtXIbBBt4PkI-66" value="" style="shape=partialRectangle;connectable=0;fillColor=none;top=0;left=0;bottom=0;right=0;editable=1;overflow=hidden;whiteSpace=wrap;html=1;" parent="rtVFUpa8TtXIbBBt4PkI-65" vertex="1">
          <mxGeometry width="80" height="30" as="geometry">
            <mxRectangle width="80" height="30" as="alternateBounds" />
          </mxGeometry>
        </mxCell>
        <mxCell id="rtVFUpa8TtXIbBBt4PkI-67" value="created_date" style="shape=partialRectangle;connectable=0;fillColor=none;top=0;left=0;bottom=0;right=0;align=left;spacingLeft=6;overflow=hidden;whiteSpace=wrap;html=1;" parent="rtVFUpa8TtXIbBBt4PkI-65" vertex="1">
          <mxGeometry x="80" width="100" height="30" as="geometry">
            <mxRectangle width="100" height="30" as="alternateBounds" />
          </mxGeometry>
        </mxCell>
        <mxCell id="rtVFUpa8TtXIbBBt4PkI-68" value="timestamp default current time" style="shape=partialRectangle;connectable=0;fillColor=none;top=0;left=0;bottom=0;right=0;align=left;spacingLeft=6;overflow=hidden;whiteSpace=wrap;html=1;" parent="rtVFUpa8TtXIbBBt4PkI-65" vertex="1">
          <mxGeometry x="180" width="150" height="30" as="geometry">
            <mxRectangle width="150" height="30" as="alternateBounds" />
          </mxGeometry>
        </mxCell>
        <mxCell id="rtVFUpa8TtXIbBBt4PkI-69" style="shape=tableRow;horizontal=0;startSize=0;swimlaneHead=0;swimlaneBody=0;fillColor=none;collapsible=0;dropTarget=0;points=[[0,0.5],[1,0.5]];portConstraint=eastwest;top=0;left=0;right=0;bottom=0;" parent="rtVFUpa8TtXIbBBt4PkI-40" vertex="1">
          <mxGeometry y="240" width="330" height="30" as="geometry" />
        </mxCell>
        <mxCell id="rtVFUpa8TtXIbBBt4PkI-70" value="" style="shape=partialRectangle;connectable=0;fillColor=none;top=0;left=0;bottom=0;right=0;editable=1;overflow=hidden;whiteSpace=wrap;html=1;" parent="rtVFUpa8TtXIbBBt4PkI-69" vertex="1">
          <mxGeometry width="80" height="30" as="geometry">
            <mxRectangle width="80" height="30" as="alternateBounds" />
          </mxGeometry>
        </mxCell>
        <mxCell id="rtVFUpa8TtXIbBBt4PkI-71" value="updated_date" style="shape=partialRectangle;connectable=0;fillColor=none;top=0;left=0;bottom=0;right=0;align=left;spacingLeft=6;overflow=hidden;whiteSpace=wrap;html=1;" parent="rtVFUpa8TtXIbBBt4PkI-69" vertex="1">
          <mxGeometry x="80" width="100" height="30" as="geometry">
            <mxRectangle width="100" height="30" as="alternateBounds" />
          </mxGeometry>
        </mxCell>
        <mxCell id="rtVFUpa8TtXIbBBt4PkI-72" value="timestamp default current time" style="shape=partialRectangle;connectable=0;fillColor=none;top=0;left=0;bottom=0;right=0;align=left;spacingLeft=6;overflow=hidden;whiteSpace=wrap;html=1;" parent="rtVFUpa8TtXIbBBt4PkI-69" vertex="1">
          <mxGeometry x="180" width="150" height="30" as="geometry">
            <mxRectangle width="150" height="30" as="alternateBounds" />
          </mxGeometry>
        </mxCell>
        <mxCell id="rtVFUpa8TtXIbBBt4PkI-91" value="services" style="shape=table;startSize=30;container=1;collapsible=1;childLayout=tableLayout;fixedRows=1;rowLines=0;fontStyle=1;align=center;resizeLast=1;html=1;" parent="1" vertex="1">
          <mxGeometry x="1240" y="650" width="330" height="240" as="geometry" />
        </mxCell>
        <mxCell id="rtVFUpa8TtXIbBBt4PkI-92" value="" style="shape=tableRow;horizontal=0;startSize=0;swimlaneHead=0;swimlaneBody=0;fillColor=none;collapsible=0;dropTarget=0;points=[[0,0.5],[1,0.5]];portConstraint=eastwest;top=0;left=0;right=0;bottom=1;" parent="rtVFUpa8TtXIbBBt4PkI-91" vertex="1">
          <mxGeometry y="30" width="330" height="30" as="geometry" />
        </mxCell>
        <mxCell id="rtVFUpa8TtXIbBBt4PkI-93" value="PK" style="shape=partialRectangle;connectable=0;fillColor=none;top=0;left=0;bottom=0;right=0;fontStyle=1;overflow=hidden;whiteSpace=wrap;html=1;" parent="rtVFUpa8TtXIbBBt4PkI-92" vertex="1">
          <mxGeometry width="70" height="30" as="geometry">
            <mxRectangle width="70" height="30" as="alternateBounds" />
          </mxGeometry>
        </mxCell>
        <mxCell id="rtVFUpa8TtXIbBBt4PkI-94" value="UniqueID" style="shape=partialRectangle;connectable=0;fillColor=none;top=0;left=0;bottom=0;right=0;align=left;spacingLeft=6;fontStyle=5;overflow=hidden;whiteSpace=wrap;html=1;" parent="rtVFUpa8TtXIbBBt4PkI-92" vertex="1">
          <mxGeometry x="70" width="110" height="30" as="geometry">
            <mxRectangle width="110" height="30" as="alternateBounds" />
          </mxGeometry>
        </mxCell>
        <mxCell id="rtVFUpa8TtXIbBBt4PkI-104" value="serial" style="shape=partialRectangle;connectable=0;fillColor=none;top=0;left=0;bottom=0;right=0;align=left;spacingLeft=6;fontStyle=5;overflow=hidden;whiteSpace=wrap;html=1;" parent="rtVFUpa8TtXIbBBt4PkI-92" vertex="1">
          <mxGeometry x="180" width="150" height="30" as="geometry">
            <mxRectangle width="150" height="30" as="alternateBounds" />
          </mxGeometry>
        </mxCell>
        <mxCell id="rtVFUpa8TtXIbBBt4PkI-95" value="" style="shape=tableRow;horizontal=0;startSize=0;swimlaneHead=0;swimlaneBody=0;fillColor=none;collapsible=0;dropTarget=0;points=[[0,0.5],[1,0.5]];portConstraint=eastwest;top=0;left=0;right=0;bottom=0;" parent="rtVFUpa8TtXIbBBt4PkI-91" vertex="1">
          <mxGeometry y="60" width="330" height="30" as="geometry" />
        </mxCell>
        <mxCell id="rtVFUpa8TtXIbBBt4PkI-96" value="Not null,Unique" style="shape=partialRectangle;connectable=0;fillColor=none;top=0;left=0;bottom=0;right=0;editable=1;overflow=hidden;whiteSpace=wrap;html=1;" parent="rtVFUpa8TtXIbBBt4PkI-95" vertex="1">
          <mxGeometry width="70" height="30" as="geometry">
            <mxRectangle width="70" height="30" as="alternateBounds" />
          </mxGeometry>
        </mxCell>
        <mxCell id="rtVFUpa8TtXIbBBt4PkI-97" value="name" style="shape=partialRectangle;connectable=0;fillColor=none;top=0;left=0;bottom=0;right=0;align=left;spacingLeft=6;overflow=hidden;whiteSpace=wrap;html=1;" parent="rtVFUpa8TtXIbBBt4PkI-95" vertex="1">
          <mxGeometry x="70" width="110" height="30" as="geometry">
            <mxRectangle width="110" height="30" as="alternateBounds" />
          </mxGeometry>
        </mxCell>
        <mxCell id="rtVFUpa8TtXIbBBt4PkI-105" value="Varchar" style="shape=partialRectangle;connectable=0;fillColor=none;top=0;left=0;bottom=0;right=0;align=left;spacingLeft=6;overflow=hidden;whiteSpace=wrap;html=1;" parent="rtVFUpa8TtXIbBBt4PkI-95" vertex="1">
          <mxGeometry x="180" width="150" height="30" as="geometry">
            <mxRectangle width="150" height="30" as="alternateBounds" />
          </mxGeometry>
        </mxCell>
        <mxCell id="rtVFUpa8TtXIbBBt4PkI-98" value="" style="shape=tableRow;horizontal=0;startSize=0;swimlaneHead=0;swimlaneBody=0;fillColor=none;collapsible=0;dropTarget=0;points=[[0,0.5],[1,0.5]];portConstraint=eastwest;top=0;left=0;right=0;bottom=0;" parent="rtVFUpa8TtXIbBBt4PkI-91" vertex="1">
          <mxGeometry y="90" width="330" height="30" as="geometry" />
        </mxCell>
        <mxCell id="rtVFUpa8TtXIbBBt4PkI-99" value="Not null" style="shape=partialRectangle;connectable=0;fillColor=none;top=0;left=0;bottom=0;right=0;editable=1;overflow=hidden;whiteSpace=wrap;html=1;" parent="rtVFUpa8TtXIbBBt4PkI-98" vertex="1">
          <mxGeometry width="70" height="30" as="geometry">
            <mxRectangle width="70" height="30" as="alternateBounds" />
          </mxGeometry>
        </mxCell>
        <mxCell id="rtVFUpa8TtXIbBBt4PkI-100" value="description" style="shape=partialRectangle;connectable=0;fillColor=none;top=0;left=0;bottom=0;right=0;align=left;spacingLeft=6;overflow=hidden;whiteSpace=wrap;html=1;" parent="rtVFUpa8TtXIbBBt4PkI-98" vertex="1">
          <mxGeometry x="70" width="110" height="30" as="geometry">
            <mxRectangle width="110" height="30" as="alternateBounds" />
          </mxGeometry>
        </mxCell>
        <mxCell id="rtVFUpa8TtXIbBBt4PkI-106" value="TEXT" style="shape=partialRectangle;connectable=0;fillColor=none;top=0;left=0;bottom=0;right=0;align=left;spacingLeft=6;overflow=hidden;whiteSpace=wrap;html=1;" parent="rtVFUpa8TtXIbBBt4PkI-98" vertex="1">
          <mxGeometry x="180" width="150" height="30" as="geometry">
            <mxRectangle width="150" height="30" as="alternateBounds" />
          </mxGeometry>
        </mxCell>
        <mxCell id="rtVFUpa8TtXIbBBt4PkI-101" value="" style="shape=tableRow;horizontal=0;startSize=0;swimlaneHead=0;swimlaneBody=0;fillColor=none;collapsible=0;dropTarget=0;points=[[0,0.5],[1,0.5]];portConstraint=eastwest;top=0;left=0;right=0;bottom=0;" parent="rtVFUpa8TtXIbBBt4PkI-91" vertex="1">
          <mxGeometry y="120" width="330" height="30" as="geometry" />
        </mxCell>
        <mxCell id="rtVFUpa8TtXIbBBt4PkI-102" value="Not null" style="shape=partialRectangle;connectable=0;fillColor=none;top=0;left=0;bottom=0;right=0;editable=1;overflow=hidden;whiteSpace=wrap;html=1;" parent="rtVFUpa8TtXIbBBt4PkI-101" vertex="1">
          <mxGeometry width="70" height="30" as="geometry">
            <mxRectangle width="70" height="30" as="alternateBounds" />
          </mxGeometry>
        </mxCell>
        <mxCell id="rtVFUpa8TtXIbBBt4PkI-103" value="price" style="shape=partialRectangle;connectable=0;fillColor=none;top=0;left=0;bottom=0;right=0;align=left;spacingLeft=6;overflow=hidden;whiteSpace=wrap;html=1;" parent="rtVFUpa8TtXIbBBt4PkI-101" vertex="1">
          <mxGeometry x="70" width="110" height="30" as="geometry">
            <mxRectangle width="110" height="30" as="alternateBounds" />
          </mxGeometry>
        </mxCell>
        <mxCell id="rtVFUpa8TtXIbBBt4PkI-107" value="Decimal(10,2)" style="shape=partialRectangle;connectable=0;fillColor=none;top=0;left=0;bottom=0;right=0;align=left;spacingLeft=6;overflow=hidden;whiteSpace=wrap;html=1;" parent="rtVFUpa8TtXIbBBt4PkI-101" vertex="1">
          <mxGeometry x="180" width="150" height="30" as="geometry">
            <mxRectangle width="150" height="30" as="alternateBounds" />
          </mxGeometry>
        </mxCell>
        <mxCell id="rtVFUpa8TtXIbBBt4PkI-108" style="shape=tableRow;horizontal=0;startSize=0;swimlaneHead=0;swimlaneBody=0;fillColor=none;collapsible=0;dropTarget=0;points=[[0,0.5],[1,0.5]];portConstraint=eastwest;top=0;left=0;right=0;bottom=0;" parent="rtVFUpa8TtXIbBBt4PkI-91" vertex="1">
          <mxGeometry y="150" width="330" height="30" as="geometry" />
        </mxCell>
        <mxCell id="rtVFUpa8TtXIbBBt4PkI-109" style="shape=partialRectangle;connectable=0;fillColor=none;top=0;left=0;bottom=0;right=0;editable=1;overflow=hidden;whiteSpace=wrap;html=1;" parent="rtVFUpa8TtXIbBBt4PkI-108" vertex="1">
          <mxGeometry width="70" height="30" as="geometry">
            <mxRectangle width="70" height="30" as="alternateBounds" />
          </mxGeometry>
        </mxCell>
        <mxCell id="rtVFUpa8TtXIbBBt4PkI-110" value="is_active" style="shape=partialRectangle;connectable=0;fillColor=none;top=0;left=0;bottom=0;right=0;align=left;spacingLeft=6;overflow=hidden;whiteSpace=wrap;html=1;" parent="rtVFUpa8TtXIbBBt4PkI-108" vertex="1">
          <mxGeometry x="70" width="110" height="30" as="geometry">
            <mxRectangle width="110" height="30" as="alternateBounds" />
          </mxGeometry>
        </mxCell>
        <mxCell id="rtVFUpa8TtXIbBBt4PkI-111" value="Boolean default true" style="shape=partialRectangle;connectable=0;fillColor=none;top=0;left=0;bottom=0;right=0;align=left;spacingLeft=6;overflow=hidden;whiteSpace=wrap;html=1;" parent="rtVFUpa8TtXIbBBt4PkI-108" vertex="1">
          <mxGeometry x="180" width="150" height="30" as="geometry">
            <mxRectangle width="150" height="30" as="alternateBounds" />
          </mxGeometry>
        </mxCell>
        <mxCell id="rtVFUpa8TtXIbBBt4PkI-112" style="shape=tableRow;horizontal=0;startSize=0;swimlaneHead=0;swimlaneBody=0;fillColor=none;collapsible=0;dropTarget=0;points=[[0,0.5],[1,0.5]];portConstraint=eastwest;top=0;left=0;right=0;bottom=0;" parent="rtVFUpa8TtXIbBBt4PkI-91" vertex="1">
          <mxGeometry y="180" width="330" height="30" as="geometry" />
        </mxCell>
        <mxCell id="rtVFUpa8TtXIbBBt4PkI-113" style="shape=partialRectangle;connectable=0;fillColor=none;top=0;left=0;bottom=0;right=0;editable=1;overflow=hidden;whiteSpace=wrap;html=1;" parent="rtVFUpa8TtXIbBBt4PkI-112" vertex="1">
          <mxGeometry width="70" height="30" as="geometry">
            <mxRectangle width="70" height="30" as="alternateBounds" />
          </mxGeometry>
        </mxCell>
        <mxCell id="rtVFUpa8TtXIbBBt4PkI-114" value="created_date" style="shape=partialRectangle;connectable=0;fillColor=none;top=0;left=0;bottom=0;right=0;align=left;spacingLeft=6;overflow=hidden;whiteSpace=wrap;html=1;" parent="rtVFUpa8TtXIbBBt4PkI-112" vertex="1">
          <mxGeometry x="70" width="110" height="30" as="geometry">
            <mxRectangle width="110" height="30" as="alternateBounds" />
          </mxGeometry>
        </mxCell>
        <mxCell id="rtVFUpa8TtXIbBBt4PkI-115" value="timestamp default current time" style="shape=partialRectangle;connectable=0;fillColor=none;top=0;left=0;bottom=0;right=0;align=left;spacingLeft=6;overflow=hidden;whiteSpace=wrap;html=1;" parent="rtVFUpa8TtXIbBBt4PkI-112" vertex="1">
          <mxGeometry x="180" width="150" height="30" as="geometry">
            <mxRectangle width="150" height="30" as="alternateBounds" />
          </mxGeometry>
        </mxCell>
        <mxCell id="rtVFUpa8TtXIbBBt4PkI-116" style="shape=tableRow;horizontal=0;startSize=0;swimlaneHead=0;swimlaneBody=0;fillColor=none;collapsible=0;dropTarget=0;points=[[0,0.5],[1,0.5]];portConstraint=eastwest;top=0;left=0;right=0;bottom=0;" parent="rtVFUpa8TtXIbBBt4PkI-91" vertex="1">
          <mxGeometry y="210" width="330" height="30" as="geometry" />
        </mxCell>
        <mxCell id="rtVFUpa8TtXIbBBt4PkI-117" style="shape=partialRectangle;connectable=0;fillColor=none;top=0;left=0;bottom=0;right=0;editable=1;overflow=hidden;whiteSpace=wrap;html=1;" parent="rtVFUpa8TtXIbBBt4PkI-116" vertex="1">
          <mxGeometry width="70" height="30" as="geometry">
            <mxRectangle width="70" height="30" as="alternateBounds" />
          </mxGeometry>
        </mxCell>
        <mxCell id="rtVFUpa8TtXIbBBt4PkI-118" value="updated_date" style="shape=partialRectangle;connectable=0;fillColor=none;top=0;left=0;bottom=0;right=0;align=left;spacingLeft=6;overflow=hidden;whiteSpace=wrap;html=1;" parent="rtVFUpa8TtXIbBBt4PkI-116" vertex="1">
          <mxGeometry x="70" width="110" height="30" as="geometry">
            <mxRectangle width="110" height="30" as="alternateBounds" />
          </mxGeometry>
        </mxCell>
        <mxCell id="rtVFUpa8TtXIbBBt4PkI-119" value="timestamp default current time" style="shape=partialRectangle;connectable=0;fillColor=none;top=0;left=0;bottom=0;right=0;align=left;spacingLeft=6;overflow=hidden;whiteSpace=wrap;html=1;" parent="rtVFUpa8TtXIbBBt4PkI-116" vertex="1">
          <mxGeometry x="180" width="150" height="30" as="geometry">
            <mxRectangle width="150" height="30" as="alternateBounds" />
          </mxGeometry>
        </mxCell>
        <mxCell id="rtVFUpa8TtXIbBBt4PkI-133" value="bookings" style="shape=table;startSize=30;container=1;collapsible=1;childLayout=tableLayout;fixedRows=1;rowLines=0;fontStyle=1;align=center;resizeLast=1;html=1;" parent="1" vertex="1">
          <mxGeometry x="500" y="930" width="330" height="460" as="geometry" />
        </mxCell>
        <mxCell id="rtVFUpa8TtXIbBBt4PkI-134" value="" style="shape=tableRow;horizontal=0;startSize=0;swimlaneHead=0;swimlaneBody=0;fillColor=none;collapsible=0;dropTarget=0;points=[[0,0.5],[1,0.5]];portConstraint=eastwest;top=0;left=0;right=0;bottom=1;" parent="rtVFUpa8TtXIbBBt4PkI-133" vertex="1">
          <mxGeometry y="30" width="330" height="30" as="geometry" />
        </mxCell>
        <mxCell id="rtVFUpa8TtXIbBBt4PkI-135" value="PK" style="shape=partialRectangle;connectable=0;fillColor=none;top=0;left=0;bottom=0;right=0;fontStyle=1;overflow=hidden;whiteSpace=wrap;html=1;" parent="rtVFUpa8TtXIbBBt4PkI-134" vertex="1">
          <mxGeometry width="70" height="30" as="geometry">
            <mxRectangle width="70" height="30" as="alternateBounds" />
          </mxGeometry>
        </mxCell>
        <mxCell id="rtVFUpa8TtXIbBBt4PkI-136" value="UniqueID" style="shape=partialRectangle;connectable=0;fillColor=none;top=0;left=0;bottom=0;right=0;align=left;spacingLeft=6;fontStyle=5;overflow=hidden;whiteSpace=wrap;html=1;" parent="rtVFUpa8TtXIbBBt4PkI-134" vertex="1">
          <mxGeometry x="70" width="110" height="30" as="geometry">
            <mxRectangle width="110" height="30" as="alternateBounds" />
          </mxGeometry>
        </mxCell>
        <mxCell id="rtVFUpa8TtXIbBBt4PkI-146" value="serial" style="shape=partialRectangle;connectable=0;fillColor=none;top=0;left=0;bottom=0;right=0;align=left;spacingLeft=6;fontStyle=5;overflow=hidden;whiteSpace=wrap;html=1;" parent="rtVFUpa8TtXIbBBt4PkI-134" vertex="1">
          <mxGeometry x="180" width="150" height="30" as="geometry">
            <mxRectangle width="150" height="30" as="alternateBounds" />
          </mxGeometry>
        </mxCell>
        <mxCell id="rtVFUpa8TtXIbBBt4PkI-154" style="shape=tableRow;horizontal=0;startSize=0;swimlaneHead=0;swimlaneBody=0;fillColor=none;collapsible=0;dropTarget=0;points=[[0,0.5],[1,0.5]];portConstraint=eastwest;top=0;left=0;right=0;bottom=1;" parent="rtVFUpa8TtXIbBBt4PkI-133" vertex="1">
          <mxGeometry y="60" width="330" height="30" as="geometry" />
        </mxCell>
        <mxCell id="rtVFUpa8TtXIbBBt4PkI-155" value="FK" style="shape=partialRectangle;connectable=0;fillColor=none;top=0;left=0;bottom=0;right=0;fontStyle=1;overflow=hidden;whiteSpace=wrap;html=1;" parent="rtVFUpa8TtXIbBBt4PkI-154" vertex="1">
          <mxGeometry width="70" height="30" as="geometry">
            <mxRectangle width="70" height="30" as="alternateBounds" />
          </mxGeometry>
        </mxCell>
        <mxCell id="rtVFUpa8TtXIbBBt4PkI-156" value="&lt;span style=&quot;font-weight: normal;&quot;&gt;user_id&lt;/span&gt;" style="shape=partialRectangle;connectable=0;fillColor=none;top=0;left=0;bottom=0;right=0;align=left;spacingLeft=6;fontStyle=1;overflow=hidden;whiteSpace=wrap;html=1;" parent="rtVFUpa8TtXIbBBt4PkI-154" vertex="1">
          <mxGeometry x="70" width="110" height="30" as="geometry">
            <mxRectangle width="110" height="30" as="alternateBounds" />
          </mxGeometry>
        </mxCell>
        <mxCell id="rtVFUpa8TtXIbBBt4PkI-157" value="Reference user_id" style="shape=partialRectangle;connectable=0;fillColor=none;top=0;left=0;bottom=0;right=0;align=left;spacingLeft=6;fontStyle=1;overflow=hidden;whiteSpace=wrap;html=1;" parent="rtVFUpa8TtXIbBBt4PkI-154" vertex="1">
          <mxGeometry x="180" width="150" height="30" as="geometry">
            <mxRectangle width="150" height="30" as="alternateBounds" />
          </mxGeometry>
        </mxCell>
        <mxCell id="rtVFUpa8TtXIbBBt4PkI-150" style="shape=tableRow;horizontal=0;startSize=0;swimlaneHead=0;swimlaneBody=0;fillColor=none;collapsible=0;dropTarget=0;points=[[0,0.5],[1,0.5]];portConstraint=eastwest;top=0;left=0;right=0;bottom=1;" parent="rtVFUpa8TtXIbBBt4PkI-133" vertex="1">
          <mxGeometry y="90" width="330" height="30" as="geometry" />
        </mxCell>
        <mxCell id="rtVFUpa8TtXIbBBt4PkI-151" value="FK" style="shape=partialRectangle;connectable=0;fillColor=none;top=0;left=0;bottom=0;right=0;fontStyle=1;overflow=hidden;whiteSpace=wrap;html=1;" parent="rtVFUpa8TtXIbBBt4PkI-150" vertex="1">
          <mxGeometry width="70" height="30" as="geometry">
            <mxRectangle width="70" height="30" as="alternateBounds" />
          </mxGeometry>
        </mxCell>
        <mxCell id="rtVFUpa8TtXIbBBt4PkI-152" value="room_id" style="shape=partialRectangle;connectable=0;fillColor=none;top=0;left=0;bottom=0;right=0;align=left;spacingLeft=6;fontStyle=1;overflow=hidden;whiteSpace=wrap;html=1;" parent="rtVFUpa8TtXIbBBt4PkI-150" vertex="1">
          <mxGeometry x="70" width="110" height="30" as="geometry">
            <mxRectangle width="110" height="30" as="alternateBounds" />
          </mxGeometry>
        </mxCell>
        <mxCell id="rtVFUpa8TtXIbBBt4PkI-153" value="Reference room_id" style="shape=partialRectangle;connectable=0;fillColor=none;top=0;left=0;bottom=0;right=0;align=left;spacingLeft=6;fontStyle=1;overflow=hidden;whiteSpace=wrap;html=1;" parent="rtVFUpa8TtXIbBBt4PkI-150" vertex="1">
          <mxGeometry x="180" width="150" height="30" as="geometry">
            <mxRectangle width="150" height="30" as="alternateBounds" />
          </mxGeometry>
        </mxCell>
        <mxCell id="rtVFUpa8TtXIbBBt4PkI-137" value="" style="shape=tableRow;horizontal=0;startSize=0;swimlaneHead=0;swimlaneBody=0;fillColor=none;collapsible=0;dropTarget=0;points=[[0,0.5],[1,0.5]];portConstraint=eastwest;top=0;left=0;right=0;bottom=0;" parent="rtVFUpa8TtXIbBBt4PkI-133" vertex="1">
          <mxGeometry y="120" width="330" height="30" as="geometry" />
        </mxCell>
        <mxCell id="rtVFUpa8TtXIbBBt4PkI-138" value="Not null,Unique" style="shape=partialRectangle;connectable=0;fillColor=none;top=0;left=0;bottom=0;right=0;editable=1;overflow=hidden;whiteSpace=wrap;html=1;" parent="rtVFUpa8TtXIbBBt4PkI-137" vertex="1">
          <mxGeometry width="70" height="30" as="geometry">
            <mxRectangle width="70" height="30" as="alternateBounds" />
          </mxGeometry>
        </mxCell>
        <mxCell id="rtVFUpa8TtXIbBBt4PkI-139" value="booking_number" style="shape=partialRectangle;connectable=0;fillColor=none;top=0;left=0;bottom=0;right=0;align=left;spacingLeft=6;overflow=hidden;whiteSpace=wrap;html=1;" parent="rtVFUpa8TtXIbBBt4PkI-137" vertex="1">
          <mxGeometry x="70" width="110" height="30" as="geometry">
            <mxRectangle width="110" height="30" as="alternateBounds" />
          </mxGeometry>
        </mxCell>
        <mxCell id="rtVFUpa8TtXIbBBt4PkI-147" value="varchar" style="shape=partialRectangle;connectable=0;fillColor=none;top=0;left=0;bottom=0;right=0;align=left;spacingLeft=6;overflow=hidden;whiteSpace=wrap;html=1;" parent="rtVFUpa8TtXIbBBt4PkI-137" vertex="1">
          <mxGeometry x="180" width="150" height="30" as="geometry">
            <mxRectangle width="150" height="30" as="alternateBounds" />
          </mxGeometry>
        </mxCell>
        <mxCell id="rtVFUpa8TtXIbBBt4PkI-140" value="" style="shape=tableRow;horizontal=0;startSize=0;swimlaneHead=0;swimlaneBody=0;fillColor=none;collapsible=0;dropTarget=0;points=[[0,0.5],[1,0.5]];portConstraint=eastwest;top=0;left=0;right=0;bottom=0;" parent="rtVFUpa8TtXIbBBt4PkI-133" vertex="1">
          <mxGeometry y="150" width="330" height="30" as="geometry" />
        </mxCell>
        <mxCell id="rtVFUpa8TtXIbBBt4PkI-141" value="not null" style="shape=partialRectangle;connectable=0;fillColor=none;top=0;left=0;bottom=0;right=0;editable=1;overflow=hidden;whiteSpace=wrap;html=1;" parent="rtVFUpa8TtXIbBBt4PkI-140" vertex="1">
          <mxGeometry width="70" height="30" as="geometry">
            <mxRectangle width="70" height="30" as="alternateBounds" />
          </mxGeometry>
        </mxCell>
        <mxCell id="rtVFUpa8TtXIbBBt4PkI-142" value="check_in_date" style="shape=partialRectangle;connectable=0;fillColor=none;top=0;left=0;bottom=0;right=0;align=left;spacingLeft=6;overflow=hidden;whiteSpace=wrap;html=1;" parent="rtVFUpa8TtXIbBBt4PkI-140" vertex="1">
          <mxGeometry x="70" width="110" height="30" as="geometry">
            <mxRectangle width="110" height="30" as="alternateBounds" />
          </mxGeometry>
        </mxCell>
        <mxCell id="rtVFUpa8TtXIbBBt4PkI-148" value="Date" style="shape=partialRectangle;connectable=0;fillColor=none;top=0;left=0;bottom=0;right=0;align=left;spacingLeft=6;overflow=hidden;whiteSpace=wrap;html=1;" parent="rtVFUpa8TtXIbBBt4PkI-140" vertex="1">
          <mxGeometry x="180" width="150" height="30" as="geometry">
            <mxRectangle width="150" height="30" as="alternateBounds" />
          </mxGeometry>
        </mxCell>
        <mxCell id="rtVFUpa8TtXIbBBt4PkI-143" value="" style="shape=tableRow;horizontal=0;startSize=0;swimlaneHead=0;swimlaneBody=0;fillColor=none;collapsible=0;dropTarget=0;points=[[0,0.5],[1,0.5]];portConstraint=eastwest;top=0;left=0;right=0;bottom=0;" parent="rtVFUpa8TtXIbBBt4PkI-133" vertex="1">
          <mxGeometry y="180" width="330" height="30" as="geometry" />
        </mxCell>
        <mxCell id="rtVFUpa8TtXIbBBt4PkI-144" value="not null" style="shape=partialRectangle;connectable=0;fillColor=none;top=0;left=0;bottom=0;right=0;editable=1;overflow=hidden;whiteSpace=wrap;html=1;" parent="rtVFUpa8TtXIbBBt4PkI-143" vertex="1">
          <mxGeometry width="70" height="30" as="geometry">
            <mxRectangle width="70" height="30" as="alternateBounds" />
          </mxGeometry>
        </mxCell>
        <mxCell id="rtVFUpa8TtXIbBBt4PkI-145" value="check_out_date" style="shape=partialRectangle;connectable=0;fillColor=none;top=0;left=0;bottom=0;right=0;align=left;spacingLeft=6;overflow=hidden;whiteSpace=wrap;html=1;" parent="rtVFUpa8TtXIbBBt4PkI-143" vertex="1">
          <mxGeometry x="70" width="110" height="30" as="geometry">
            <mxRectangle width="110" height="30" as="alternateBounds" />
          </mxGeometry>
        </mxCell>
        <mxCell id="rtVFUpa8TtXIbBBt4PkI-149" value="Date" style="shape=partialRectangle;connectable=0;fillColor=none;top=0;left=0;bottom=0;right=0;align=left;spacingLeft=6;overflow=hidden;whiteSpace=wrap;html=1;" parent="rtVFUpa8TtXIbBBt4PkI-143" vertex="1">
          <mxGeometry x="180" width="150" height="30" as="geometry">
            <mxRectangle width="150" height="30" as="alternateBounds" />
          </mxGeometry>
        </mxCell>
        <mxCell id="rtVFUpa8TtXIbBBt4PkI-159" style="shape=tableRow;horizontal=0;startSize=0;swimlaneHead=0;swimlaneBody=0;fillColor=none;collapsible=0;dropTarget=0;points=[[0,0.5],[1,0.5]];portConstraint=eastwest;top=0;left=0;right=0;bottom=0;" parent="rtVFUpa8TtXIbBBt4PkI-133" vertex="1">
          <mxGeometry y="210" width="330" height="30" as="geometry" />
        </mxCell>
        <mxCell id="rtVFUpa8TtXIbBBt4PkI-160" value="not null" style="shape=partialRectangle;connectable=0;fillColor=none;top=0;left=0;bottom=0;right=0;editable=1;overflow=hidden;whiteSpace=wrap;html=1;" parent="rtVFUpa8TtXIbBBt4PkI-159" vertex="1">
          <mxGeometry width="70" height="30" as="geometry">
            <mxRectangle width="70" height="30" as="alternateBounds" />
          </mxGeometry>
        </mxCell>
        <mxCell id="rtVFUpa8TtXIbBBt4PkI-161" value="persons" style="shape=partialRectangle;connectable=0;fillColor=none;top=0;left=0;bottom=0;right=0;align=left;spacingLeft=6;overflow=hidden;whiteSpace=wrap;html=1;" parent="rtVFUpa8TtXIbBBt4PkI-159" vertex="1">
          <mxGeometry x="70" width="110" height="30" as="geometry">
            <mxRectangle width="110" height="30" as="alternateBounds" />
          </mxGeometry>
        </mxCell>
        <mxCell id="rtVFUpa8TtXIbBBt4PkI-162" value="Integer" style="shape=partialRectangle;connectable=0;fillColor=none;top=0;left=0;bottom=0;right=0;align=left;spacingLeft=6;overflow=hidden;whiteSpace=wrap;html=1;" parent="rtVFUpa8TtXIbBBt4PkI-159" vertex="1">
          <mxGeometry x="180" width="150" height="30" as="geometry">
            <mxRectangle width="150" height="30" as="alternateBounds" />
          </mxGeometry>
        </mxCell>
        <mxCell id="rtVFUpa8TtXIbBBt4PkI-172" style="shape=tableRow;horizontal=0;startSize=0;swimlaneHead=0;swimlaneBody=0;fillColor=none;collapsible=0;dropTarget=0;points=[[0,0.5],[1,0.5]];portConstraint=eastwest;top=0;left=0;right=0;bottom=0;" parent="rtVFUpa8TtXIbBBt4PkI-133" vertex="1">
          <mxGeometry y="240" width="330" height="30" as="geometry" />
        </mxCell>
        <mxCell id="rtVFUpa8TtXIbBBt4PkI-173" value="not_null" style="shape=partialRectangle;connectable=0;fillColor=none;top=0;left=0;bottom=0;right=0;editable=1;overflow=hidden;whiteSpace=wrap;html=1;" parent="rtVFUpa8TtXIbBBt4PkI-172" vertex="1">
          <mxGeometry width="70" height="30" as="geometry">
            <mxRectangle width="70" height="30" as="alternateBounds" />
          </mxGeometry>
        </mxCell>
        <mxCell id="rtVFUpa8TtXIbBBt4PkI-174" value="total_price" style="shape=partialRectangle;connectable=0;fillColor=none;top=0;left=0;bottom=0;right=0;align=left;spacingLeft=6;overflow=hidden;whiteSpace=wrap;html=1;" parent="rtVFUpa8TtXIbBBt4PkI-172" vertex="1">
          <mxGeometry x="70" width="110" height="30" as="geometry">
            <mxRectangle width="110" height="30" as="alternateBounds" />
          </mxGeometry>
        </mxCell>
        <mxCell id="rtVFUpa8TtXIbBBt4PkI-175" value="Decimal(10,2)" style="shape=partialRectangle;connectable=0;fillColor=none;top=0;left=0;bottom=0;right=0;align=left;spacingLeft=6;overflow=hidden;whiteSpace=wrap;html=1;" parent="rtVFUpa8TtXIbBBt4PkI-172" vertex="1">
          <mxGeometry x="180" width="150" height="30" as="geometry">
            <mxRectangle width="150" height="30" as="alternateBounds" />
          </mxGeometry>
        </mxCell>
        <mxCell id="rtVFUpa8TtXIbBBt4PkI-168" style="shape=tableRow;horizontal=0;startSize=0;swimlaneHead=0;swimlaneBody=0;fillColor=none;collapsible=0;dropTarget=0;points=[[0,0.5],[1,0.5]];portConstraint=eastwest;top=0;left=0;right=0;bottom=0;" parent="rtVFUpa8TtXIbBBt4PkI-133" vertex="1">
          <mxGeometry y="270" width="330" height="70" as="geometry" />
        </mxCell>
        <mxCell id="rtVFUpa8TtXIbBBt4PkI-169" value="not null" style="shape=partialRectangle;connectable=0;fillColor=none;top=0;left=0;bottom=0;right=0;editable=1;overflow=hidden;whiteSpace=wrap;html=1;" parent="rtVFUpa8TtXIbBBt4PkI-168" vertex="1">
          <mxGeometry width="70" height="70" as="geometry">
            <mxRectangle width="70" height="70" as="alternateBounds" />
          </mxGeometry>
        </mxCell>
        <mxCell id="rtVFUpa8TtXIbBBt4PkI-170" value="status(pending, confirmed, cancelled, complete)" style="shape=partialRectangle;connectable=0;fillColor=none;top=0;left=0;bottom=0;right=0;align=left;spacingLeft=6;overflow=hidden;html=1;whiteSpace=wrap;" parent="rtVFUpa8TtXIbBBt4PkI-168" vertex="1">
          <mxGeometry x="70" width="110" height="70" as="geometry">
            <mxRectangle width="110" height="70" as="alternateBounds" />
          </mxGeometry>
        </mxCell>
        <mxCell id="rtVFUpa8TtXIbBBt4PkI-171" value="varchar" style="shape=partialRectangle;connectable=0;fillColor=none;top=0;left=0;bottom=0;right=0;align=left;spacingLeft=6;overflow=hidden;whiteSpace=wrap;html=1;" parent="rtVFUpa8TtXIbBBt4PkI-168" vertex="1">
          <mxGeometry x="180" width="150" height="70" as="geometry">
            <mxRectangle width="150" height="70" as="alternateBounds" />
          </mxGeometry>
        </mxCell>
        <mxCell id="rtVFUpa8TtXIbBBt4PkI-163" style="shape=tableRow;horizontal=0;startSize=0;swimlaneHead=0;swimlaneBody=0;fillColor=none;collapsible=0;dropTarget=0;points=[[0,0.5],[1,0.5]];portConstraint=eastwest;top=0;left=0;right=0;bottom=0;" parent="rtVFUpa8TtXIbBBt4PkI-133" vertex="1">
          <mxGeometry y="340" width="330" height="40" as="geometry" />
        </mxCell>
        <mxCell id="rtVFUpa8TtXIbBBt4PkI-164" value="FK" style="shape=partialRectangle;connectable=0;fillColor=none;top=0;left=0;bottom=0;right=0;editable=1;overflow=hidden;whiteSpace=wrap;html=1;" parent="rtVFUpa8TtXIbBBt4PkI-163" vertex="1">
          <mxGeometry width="70" height="40" as="geometry">
            <mxRectangle width="70" height="40" as="alternateBounds" />
          </mxGeometry>
        </mxCell>
        <mxCell id="rtVFUpa8TtXIbBBt4PkI-165" value="promocode_id" style="shape=partialRectangle;connectable=0;fillColor=none;top=0;left=0;bottom=0;right=0;align=left;spacingLeft=6;overflow=hidden;whiteSpace=wrap;html=1;" parent="rtVFUpa8TtXIbBBt4PkI-163" vertex="1">
          <mxGeometry x="70" width="110" height="40" as="geometry">
            <mxRectangle width="110" height="40" as="alternateBounds" />
          </mxGeometry>
        </mxCell>
        <mxCell id="rtVFUpa8TtXIbBBt4PkI-166" value="&lt;span style=&quot;font-weight: 700;&quot;&gt;Reference promocode_id&lt;/span&gt;" style="shape=partialRectangle;connectable=0;fillColor=none;top=0;left=0;bottom=0;right=0;align=left;spacingLeft=6;overflow=hidden;whiteSpace=wrap;html=1;" parent="rtVFUpa8TtXIbBBt4PkI-163" vertex="1">
          <mxGeometry x="180" width="150" height="40" as="geometry">
            <mxRectangle width="150" height="40" as="alternateBounds" />
          </mxGeometry>
        </mxCell>
        <mxCell id="rtVFUpa8TtXIbBBt4PkI-176" style="shape=tableRow;horizontal=0;startSize=0;swimlaneHead=0;swimlaneBody=0;fillColor=none;collapsible=0;dropTarget=0;points=[[0,0.5],[1,0.5]];portConstraint=eastwest;top=0;left=0;right=0;bottom=0;" parent="rtVFUpa8TtXIbBBt4PkI-133" vertex="1">
          <mxGeometry y="380" width="330" height="40" as="geometry" />
        </mxCell>
        <mxCell id="rtVFUpa8TtXIbBBt4PkI-177" style="shape=partialRectangle;connectable=0;fillColor=none;top=0;left=0;bottom=0;right=0;editable=1;overflow=hidden;whiteSpace=wrap;html=1;" parent="rtVFUpa8TtXIbBBt4PkI-176" vertex="1">
          <mxGeometry width="70" height="40" as="geometry">
            <mxRectangle width="70" height="40" as="alternateBounds" />
          </mxGeometry>
        </mxCell>
        <mxCell id="rtVFUpa8TtXIbBBt4PkI-178" value="created_date" style="shape=partialRectangle;connectable=0;fillColor=none;top=0;left=0;bottom=0;right=0;align=left;spacingLeft=6;overflow=hidden;whiteSpace=wrap;html=1;" parent="rtVFUpa8TtXIbBBt4PkI-176" vertex="1">
          <mxGeometry x="70" width="110" height="40" as="geometry">
            <mxRectangle width="110" height="40" as="alternateBounds" />
          </mxGeometry>
        </mxCell>
        <mxCell id="rtVFUpa8TtXIbBBt4PkI-179" value="timestamp default current time" style="shape=partialRectangle;connectable=0;fillColor=none;top=0;left=0;bottom=0;right=0;align=left;spacingLeft=6;overflow=hidden;whiteSpace=wrap;html=1;" parent="rtVFUpa8TtXIbBBt4PkI-176" vertex="1">
          <mxGeometry x="180" width="150" height="40" as="geometry">
            <mxRectangle width="150" height="40" as="alternateBounds" />
          </mxGeometry>
        </mxCell>
        <mxCell id="rtVFUpa8TtXIbBBt4PkI-180" style="shape=tableRow;horizontal=0;startSize=0;swimlaneHead=0;swimlaneBody=0;fillColor=none;collapsible=0;dropTarget=0;points=[[0,0.5],[1,0.5]];portConstraint=eastwest;top=0;left=0;right=0;bottom=0;" parent="rtVFUpa8TtXIbBBt4PkI-133" vertex="1">
          <mxGeometry y="420" width="330" height="40" as="geometry" />
        </mxCell>
        <mxCell id="rtVFUpa8TtXIbBBt4PkI-181" style="shape=partialRectangle;connectable=0;fillColor=none;top=0;left=0;bottom=0;right=0;editable=1;overflow=hidden;whiteSpace=wrap;html=1;" parent="rtVFUpa8TtXIbBBt4PkI-180" vertex="1">
          <mxGeometry width="70" height="40" as="geometry">
            <mxRectangle width="70" height="40" as="alternateBounds" />
          </mxGeometry>
        </mxCell>
        <mxCell id="rtVFUpa8TtXIbBBt4PkI-182" value="updated_date" style="shape=partialRectangle;connectable=0;fillColor=none;top=0;left=0;bottom=0;right=0;align=left;spacingLeft=6;overflow=hidden;whiteSpace=wrap;html=1;" parent="rtVFUpa8TtXIbBBt4PkI-180" vertex="1">
          <mxGeometry x="70" width="110" height="40" as="geometry">
            <mxRectangle width="110" height="40" as="alternateBounds" />
          </mxGeometry>
        </mxCell>
        <mxCell id="rtVFUpa8TtXIbBBt4PkI-183" value="timestamp default current time" style="shape=partialRectangle;connectable=0;fillColor=none;top=0;left=0;bottom=0;right=0;align=left;spacingLeft=6;overflow=hidden;whiteSpace=wrap;html=1;" parent="rtVFUpa8TtXIbBBt4PkI-180" vertex="1">
          <mxGeometry x="180" width="150" height="40" as="geometry">
            <mxRectangle width="150" height="40" as="alternateBounds" />
          </mxGeometry>
        </mxCell>
        <mxCell id="rtVFUpa8TtXIbBBt4PkI-210" value="&lt;span style=&quot;text-wrap-mode: wrap;&quot;&gt;booking_service&lt;/span&gt;" style="shape=table;startSize=30;container=1;collapsible=1;childLayout=tableLayout;fixedRows=1;rowLines=0;fontStyle=1;align=center;resizeLast=1;html=1;" parent="1" vertex="1">
          <mxGeometry x="980" y="810" width="180" height="60" as="geometry" />
        </mxCell>
        <mxCell id="rtVFUpa8TtXIbBBt4PkI-211" value="" style="shape=tableRow;horizontal=0;startSize=0;swimlaneHead=0;swimlaneBody=0;fillColor=none;collapsible=0;dropTarget=0;points=[[0,0.5],[1,0.5]];portConstraint=eastwest;top=0;left=0;right=0;bottom=1;" parent="rtVFUpa8TtXIbBBt4PkI-210" vertex="1">
          <mxGeometry y="30" width="180" height="30" as="geometry" />
        </mxCell>
        <mxCell id="rtVFUpa8TtXIbBBt4PkI-212" value="&lt;span style=&quot;text-align: left; text-decoration-line: underline;&quot;&gt;Booking_id&lt;/span&gt;" style="shape=partialRectangle;connectable=0;fillColor=none;top=0;left=0;bottom=0;right=0;fontStyle=1;overflow=hidden;whiteSpace=wrap;html=1;" parent="rtVFUpa8TtXIbBBt4PkI-211" vertex="1">
          <mxGeometry width="90.00000000000023" height="30" as="geometry">
            <mxRectangle width="90.00000000000023" height="30" as="alternateBounds" />
          </mxGeometry>
        </mxCell>
        <mxCell id="rtVFUpa8TtXIbBBt4PkI-213" value="Service_id" style="shape=partialRectangle;connectable=0;fillColor=none;top=0;left=0;bottom=0;right=0;align=left;spacingLeft=6;fontStyle=5;overflow=hidden;whiteSpace=wrap;html=1;" parent="rtVFUpa8TtXIbBBt4PkI-211" vertex="1">
          <mxGeometry x="90.00000000000023" width="89.99999999999977" height="30" as="geometry">
            <mxRectangle width="89.99999999999977" height="30" as="alternateBounds" />
          </mxGeometry>
        </mxCell>
        <mxCell id="rtVFUpa8TtXIbBBt4PkI-223" value="" style="edgeStyle=orthogonalEdgeStyle;fontSize=12;html=1;endArrow=ERmany;startArrow=ERmany;rounded=0;exitX=1;exitY=0.5;exitDx=0;exitDy=0;entryX=0;entryY=0.5;entryDx=0;entryDy=0;curved=1;" parent="1" source="rtVFUpa8TtXIbBBt4PkI-134" target="rtVFUpa8TtXIbBBt4PkI-211" edge="1">
          <mxGeometry width="100" height="100" relative="1" as="geometry">
            <mxPoint x="390" y="1040" as="sourcePoint" />
            <mxPoint x="490" y="940" as="targetPoint" />
          </mxGeometry>
        </mxCell>
        <mxCell id="rtVFUpa8TtXIbBBt4PkI-224" value="" style="edgeStyle=orthogonalEdgeStyle;fontSize=12;html=1;endArrow=ERmany;startArrow=ERmany;rounded=0;entryX=1;entryY=0.5;entryDx=0;entryDy=0;exitX=0;exitY=0.5;exitDx=0;exitDy=0;curved=1;" parent="1" source="rtVFUpa8TtXIbBBt4PkI-92" target="rtVFUpa8TtXIbBBt4PkI-211" edge="1">
          <mxGeometry width="100" height="100" relative="1" as="geometry">
            <mxPoint x="390" y="1040" as="sourcePoint" />
            <mxPoint x="490" y="940" as="targetPoint" />
          </mxGeometry>
        </mxCell>
        <mxCell id="rtVFUpa8TtXIbBBt4PkI-225" value="promo_codes" style="shape=table;startSize=30;container=1;collapsible=1;childLayout=tableLayout;fixedRows=1;rowLines=0;fontStyle=1;align=center;resizeLast=1;html=1;" parent="1" vertex="1">
          <mxGeometry x="980" y="1020" width="330" height="300" as="geometry" />
        </mxCell>
        <mxCell id="rtVFUpa8TtXIbBBt4PkI-226" value="" style="shape=tableRow;horizontal=0;startSize=0;swimlaneHead=0;swimlaneBody=0;fillColor=none;collapsible=0;dropTarget=0;points=[[0,0.5],[1,0.5]];portConstraint=eastwest;top=0;left=0;right=0;bottom=1;" parent="rtVFUpa8TtXIbBBt4PkI-225" vertex="1">
          <mxGeometry y="30" width="330" height="30" as="geometry" />
        </mxCell>
        <mxCell id="rtVFUpa8TtXIbBBt4PkI-227" value="PK" style="shape=partialRectangle;connectable=0;fillColor=none;top=0;left=0;bottom=0;right=0;fontStyle=1;overflow=hidden;whiteSpace=wrap;html=1;" parent="rtVFUpa8TtXIbBBt4PkI-226" vertex="1">
          <mxGeometry width="59.99999999999977" height="30" as="geometry">
            <mxRectangle width="59.99999999999977" height="30" as="alternateBounds" />
          </mxGeometry>
        </mxCell>
        <mxCell id="rtVFUpa8TtXIbBBt4PkI-228" value="UniqueID" style="shape=partialRectangle;connectable=0;fillColor=none;top=0;left=0;bottom=0;right=0;align=left;spacingLeft=6;fontStyle=5;overflow=hidden;whiteSpace=wrap;html=1;" parent="rtVFUpa8TtXIbBBt4PkI-226" vertex="1">
          <mxGeometry x="59.99999999999977" width="140.00000000000023" height="30" as="geometry">
            <mxRectangle width="140.00000000000023" height="30" as="alternateBounds" />
          </mxGeometry>
        </mxCell>
        <mxCell id="rtVFUpa8TtXIbBBt4PkI-238" value="Serial" style="shape=partialRectangle;connectable=0;fillColor=none;top=0;left=0;bottom=0;right=0;align=left;spacingLeft=6;fontStyle=5;overflow=hidden;whiteSpace=wrap;html=1;" parent="rtVFUpa8TtXIbBBt4PkI-226" vertex="1">
          <mxGeometry x="200" width="130" height="30" as="geometry">
            <mxRectangle width="130" height="30" as="alternateBounds" />
          </mxGeometry>
        </mxCell>
        <mxCell id="rtVFUpa8TtXIbBBt4PkI-229" value="" style="shape=tableRow;horizontal=0;startSize=0;swimlaneHead=0;swimlaneBody=0;fillColor=none;collapsible=0;dropTarget=0;points=[[0,0.5],[1,0.5]];portConstraint=eastwest;top=0;left=0;right=0;bottom=0;" parent="rtVFUpa8TtXIbBBt4PkI-225" vertex="1">
          <mxGeometry y="60" width="330" height="30" as="geometry" />
        </mxCell>
        <mxCell id="rtVFUpa8TtXIbBBt4PkI-230" value="Not null" style="shape=partialRectangle;connectable=0;fillColor=none;top=0;left=0;bottom=0;right=0;editable=1;overflow=hidden;whiteSpace=wrap;html=1;" parent="rtVFUpa8TtXIbBBt4PkI-229" vertex="1">
          <mxGeometry width="59.99999999999977" height="30" as="geometry">
            <mxRectangle width="59.99999999999977" height="30" as="alternateBounds" />
          </mxGeometry>
        </mxCell>
        <mxCell id="rtVFUpa8TtXIbBBt4PkI-231" value="code" style="shape=partialRectangle;connectable=0;fillColor=none;top=0;left=0;bottom=0;right=0;align=left;spacingLeft=6;overflow=hidden;whiteSpace=wrap;html=1;" parent="rtVFUpa8TtXIbBBt4PkI-229" vertex="1">
          <mxGeometry x="59.99999999999977" width="140.00000000000023" height="30" as="geometry">
            <mxRectangle width="140.00000000000023" height="30" as="alternateBounds" />
          </mxGeometry>
        </mxCell>
        <mxCell id="rtVFUpa8TtXIbBBt4PkI-239" value="varchar" style="shape=partialRectangle;connectable=0;fillColor=none;top=0;left=0;bottom=0;right=0;align=left;spacingLeft=6;overflow=hidden;whiteSpace=wrap;html=1;" parent="rtVFUpa8TtXIbBBt4PkI-229" vertex="1">
          <mxGeometry x="200" width="130" height="30" as="geometry">
            <mxRectangle width="130" height="30" as="alternateBounds" />
          </mxGeometry>
        </mxCell>
        <mxCell id="rtVFUpa8TtXIbBBt4PkI-232" value="" style="shape=tableRow;horizontal=0;startSize=0;swimlaneHead=0;swimlaneBody=0;fillColor=none;collapsible=0;dropTarget=0;points=[[0,0.5],[1,0.5]];portConstraint=eastwest;top=0;left=0;right=0;bottom=0;" parent="rtVFUpa8TtXIbBBt4PkI-225" vertex="1">
          <mxGeometry y="90" width="330" height="30" as="geometry" />
        </mxCell>
        <mxCell id="rtVFUpa8TtXIbBBt4PkI-233" value="Not null" style="shape=partialRectangle;connectable=0;fillColor=none;top=0;left=0;bottom=0;right=0;editable=1;overflow=hidden;whiteSpace=wrap;html=1;" parent="rtVFUpa8TtXIbBBt4PkI-232" vertex="1">
          <mxGeometry width="59.99999999999977" height="30" as="geometry">
            <mxRectangle width="59.99999999999977" height="30" as="alternateBounds" />
          </mxGeometry>
        </mxCell>
        <mxCell id="rtVFUpa8TtXIbBBt4PkI-234" value="discount_type (percent , fixed)" style="shape=partialRectangle;connectable=0;fillColor=none;top=0;left=0;bottom=0;right=0;align=left;spacingLeft=6;overflow=hidden;whiteSpace=wrap;html=1;" parent="rtVFUpa8TtXIbBBt4PkI-232" vertex="1">
          <mxGeometry x="59.99999999999977" width="140.00000000000023" height="30" as="geometry">
            <mxRectangle width="140.00000000000023" height="30" as="alternateBounds" />
          </mxGeometry>
        </mxCell>
        <mxCell id="rtVFUpa8TtXIbBBt4PkI-240" style="shape=partialRectangle;connectable=0;fillColor=none;top=0;left=0;bottom=0;right=0;align=left;spacingLeft=6;overflow=hidden;whiteSpace=wrap;html=1;" parent="rtVFUpa8TtXIbBBt4PkI-232" vertex="1">
          <mxGeometry x="200" width="130" height="30" as="geometry">
            <mxRectangle width="130" height="30" as="alternateBounds" />
          </mxGeometry>
        </mxCell>
        <mxCell id="rtVFUpa8TtXIbBBt4PkI-235" value="" style="shape=tableRow;horizontal=0;startSize=0;swimlaneHead=0;swimlaneBody=0;fillColor=none;collapsible=0;dropTarget=0;points=[[0,0.5],[1,0.5]];portConstraint=eastwest;top=0;left=0;right=0;bottom=0;" parent="rtVFUpa8TtXIbBBt4PkI-225" vertex="1">
          <mxGeometry y="120" width="330" height="30" as="geometry" />
        </mxCell>
        <mxCell id="rtVFUpa8TtXIbBBt4PkI-236" value="Not null" style="shape=partialRectangle;connectable=0;fillColor=none;top=0;left=0;bottom=0;right=0;editable=1;overflow=hidden;whiteSpace=wrap;html=1;" parent="rtVFUpa8TtXIbBBt4PkI-235" vertex="1">
          <mxGeometry width="59.99999999999977" height="30" as="geometry">
            <mxRectangle width="59.99999999999977" height="30" as="alternateBounds" />
          </mxGeometry>
        </mxCell>
        <mxCell id="rtVFUpa8TtXIbBBt4PkI-237" value="discount_value" style="shape=partialRectangle;connectable=0;fillColor=none;top=0;left=0;bottom=0;right=0;align=left;spacingLeft=6;overflow=hidden;whiteSpace=wrap;html=1;" parent="rtVFUpa8TtXIbBBt4PkI-235" vertex="1">
          <mxGeometry x="59.99999999999977" width="140.00000000000023" height="30" as="geometry">
            <mxRectangle width="140.00000000000023" height="30" as="alternateBounds" />
          </mxGeometry>
        </mxCell>
        <mxCell id="rtVFUpa8TtXIbBBt4PkI-241" value="Decimal(10,2)" style="shape=partialRectangle;connectable=0;fillColor=none;top=0;left=0;bottom=0;right=0;align=left;spacingLeft=6;overflow=hidden;whiteSpace=wrap;html=1;" parent="rtVFUpa8TtXIbBBt4PkI-235" vertex="1">
          <mxGeometry x="200" width="130" height="30" as="geometry">
            <mxRectangle width="130" height="30" as="alternateBounds" />
          </mxGeometry>
        </mxCell>
        <mxCell id="rtVFUpa8TtXIbBBt4PkI-242" style="shape=tableRow;horizontal=0;startSize=0;swimlaneHead=0;swimlaneBody=0;fillColor=none;collapsible=0;dropTarget=0;points=[[0,0.5],[1,0.5]];portConstraint=eastwest;top=0;left=0;right=0;bottom=0;" parent="rtVFUpa8TtXIbBBt4PkI-225" vertex="1">
          <mxGeometry y="150" width="330" height="30" as="geometry" />
        </mxCell>
        <mxCell id="rtVFUpa8TtXIbBBt4PkI-243" value="Not null" style="shape=partialRectangle;connectable=0;fillColor=none;top=0;left=0;bottom=0;right=0;editable=1;overflow=hidden;whiteSpace=wrap;html=1;" parent="rtVFUpa8TtXIbBBt4PkI-242" vertex="1">
          <mxGeometry width="59.99999999999977" height="30" as="geometry">
            <mxRectangle width="59.99999999999977" height="30" as="alternateBounds" />
          </mxGeometry>
        </mxCell>
        <mxCell id="rtVFUpa8TtXIbBBt4PkI-244" value="valid_from" style="shape=partialRectangle;connectable=0;fillColor=none;top=0;left=0;bottom=0;right=0;align=left;spacingLeft=6;overflow=hidden;whiteSpace=wrap;html=1;" parent="rtVFUpa8TtXIbBBt4PkI-242" vertex="1">
          <mxGeometry x="59.99999999999977" width="140.00000000000023" height="30" as="geometry">
            <mxRectangle width="140.00000000000023" height="30" as="alternateBounds" />
          </mxGeometry>
        </mxCell>
        <mxCell id="rtVFUpa8TtXIbBBt4PkI-245" value="Date" style="shape=partialRectangle;connectable=0;fillColor=none;top=0;left=0;bottom=0;right=0;align=left;spacingLeft=6;overflow=hidden;whiteSpace=wrap;html=1;" parent="rtVFUpa8TtXIbBBt4PkI-242" vertex="1">
          <mxGeometry x="200" width="130" height="30" as="geometry">
            <mxRectangle width="130" height="30" as="alternateBounds" />
          </mxGeometry>
        </mxCell>
        <mxCell id="rtVFUpa8TtXIbBBt4PkI-246" style="shape=tableRow;horizontal=0;startSize=0;swimlaneHead=0;swimlaneBody=0;fillColor=none;collapsible=0;dropTarget=0;points=[[0,0.5],[1,0.5]];portConstraint=eastwest;top=0;left=0;right=0;bottom=0;" parent="rtVFUpa8TtXIbBBt4PkI-225" vertex="1">
          <mxGeometry y="180" width="330" height="30" as="geometry" />
        </mxCell>
        <mxCell id="rtVFUpa8TtXIbBBt4PkI-247" value="Not null" style="shape=partialRectangle;connectable=0;fillColor=none;top=0;left=0;bottom=0;right=0;editable=1;overflow=hidden;whiteSpace=wrap;html=1;" parent="rtVFUpa8TtXIbBBt4PkI-246" vertex="1">
          <mxGeometry width="59.99999999999977" height="30" as="geometry">
            <mxRectangle width="59.99999999999977" height="30" as="alternateBounds" />
          </mxGeometry>
        </mxCell>
        <mxCell id="rtVFUpa8TtXIbBBt4PkI-248" value="valid_untill" style="shape=partialRectangle;connectable=0;fillColor=none;top=0;left=0;bottom=0;right=0;align=left;spacingLeft=6;overflow=hidden;whiteSpace=wrap;html=1;" parent="rtVFUpa8TtXIbBBt4PkI-246" vertex="1">
          <mxGeometry x="59.99999999999977" width="140.00000000000023" height="30" as="geometry">
            <mxRectangle width="140.00000000000023" height="30" as="alternateBounds" />
          </mxGeometry>
        </mxCell>
        <mxCell id="rtVFUpa8TtXIbBBt4PkI-249" value="Date" style="shape=partialRectangle;connectable=0;fillColor=none;top=0;left=0;bottom=0;right=0;align=left;spacingLeft=6;overflow=hidden;whiteSpace=wrap;html=1;" parent="rtVFUpa8TtXIbBBt4PkI-246" vertex="1">
          <mxGeometry x="200" width="130" height="30" as="geometry">
            <mxRectangle width="130" height="30" as="alternateBounds" />
          </mxGeometry>
        </mxCell>
        <mxCell id="rtVFUpa8TtXIbBBt4PkI-250" style="shape=tableRow;horizontal=0;startSize=0;swimlaneHead=0;swimlaneBody=0;fillColor=none;collapsible=0;dropTarget=0;points=[[0,0.5],[1,0.5]];portConstraint=eastwest;top=0;left=0;right=0;bottom=0;" parent="rtVFUpa8TtXIbBBt4PkI-225" vertex="1">
          <mxGeometry y="210" width="330" height="30" as="geometry" />
        </mxCell>
        <mxCell id="rtVFUpa8TtXIbBBt4PkI-251" value="Not null" style="shape=partialRectangle;connectable=0;fillColor=none;top=0;left=0;bottom=0;right=0;editable=1;overflow=hidden;whiteSpace=wrap;html=1;" parent="rtVFUpa8TtXIbBBt4PkI-250" vertex="1">
          <mxGeometry width="59.99999999999977" height="30" as="geometry">
            <mxRectangle width="59.99999999999977" height="30" as="alternateBounds" />
          </mxGeometry>
        </mxCell>
        <mxCell id="rtVFUpa8TtXIbBBt4PkI-252" value="max_uses" style="shape=partialRectangle;connectable=0;fillColor=none;top=0;left=0;bottom=0;right=0;align=left;spacingLeft=6;overflow=hidden;whiteSpace=wrap;html=1;" parent="rtVFUpa8TtXIbBBt4PkI-250" vertex="1">
          <mxGeometry x="59.99999999999977" width="140.00000000000023" height="30" as="geometry">
            <mxRectangle width="140.00000000000023" height="30" as="alternateBounds" />
          </mxGeometry>
        </mxCell>
        <mxCell id="rtVFUpa8TtXIbBBt4PkI-253" value="Integer" style="shape=partialRectangle;connectable=0;fillColor=none;top=0;left=0;bottom=0;right=0;align=left;spacingLeft=6;overflow=hidden;whiteSpace=wrap;html=1;" parent="rtVFUpa8TtXIbBBt4PkI-250" vertex="1">
          <mxGeometry x="200" width="130" height="30" as="geometry">
            <mxRectangle width="130" height="30" as="alternateBounds" />
          </mxGeometry>
        </mxCell>
        <mxCell id="rtVFUpa8TtXIbBBt4PkI-254" style="shape=tableRow;horizontal=0;startSize=0;swimlaneHead=0;swimlaneBody=0;fillColor=none;collapsible=0;dropTarget=0;points=[[0,0.5],[1,0.5]];portConstraint=eastwest;top=0;left=0;right=0;bottom=0;" parent="rtVFUpa8TtXIbBBt4PkI-225" vertex="1">
          <mxGeometry y="240" width="330" height="30" as="geometry" />
        </mxCell>
        <mxCell id="rtVFUpa8TtXIbBBt4PkI-255" style="shape=partialRectangle;connectable=0;fillColor=none;top=0;left=0;bottom=0;right=0;editable=1;overflow=hidden;whiteSpace=wrap;html=1;" parent="rtVFUpa8TtXIbBBt4PkI-254" vertex="1">
          <mxGeometry width="59.99999999999977" height="30" as="geometry">
            <mxRectangle width="59.99999999999977" height="30" as="alternateBounds" />
          </mxGeometry>
        </mxCell>
        <mxCell id="rtVFUpa8TtXIbBBt4PkI-256" value="curent_uses" style="shape=partialRectangle;connectable=0;fillColor=none;top=0;left=0;bottom=0;right=0;align=left;spacingLeft=6;overflow=hidden;whiteSpace=wrap;html=1;" parent="rtVFUpa8TtXIbBBt4PkI-254" vertex="1">
          <mxGeometry x="59.99999999999977" width="140.00000000000023" height="30" as="geometry">
            <mxRectangle width="140.00000000000023" height="30" as="alternateBounds" />
          </mxGeometry>
        </mxCell>
        <mxCell id="rtVFUpa8TtXIbBBt4PkI-257" value="Integer default 0" style="shape=partialRectangle;connectable=0;fillColor=none;top=0;left=0;bottom=0;right=0;align=left;spacingLeft=6;overflow=hidden;whiteSpace=wrap;html=1;" parent="rtVFUpa8TtXIbBBt4PkI-254" vertex="1">
          <mxGeometry x="200" width="130" height="30" as="geometry">
            <mxRectangle width="130" height="30" as="alternateBounds" />
          </mxGeometry>
        </mxCell>
        <mxCell id="rtVFUpa8TtXIbBBt4PkI-258" style="shape=tableRow;horizontal=0;startSize=0;swimlaneHead=0;swimlaneBody=0;fillColor=none;collapsible=0;dropTarget=0;points=[[0,0.5],[1,0.5]];portConstraint=eastwest;top=0;left=0;right=0;bottom=0;" parent="rtVFUpa8TtXIbBBt4PkI-225" vertex="1">
          <mxGeometry y="270" width="330" height="30" as="geometry" />
        </mxCell>
        <mxCell id="rtVFUpa8TtXIbBBt4PkI-259" style="shape=partialRectangle;connectable=0;fillColor=none;top=0;left=0;bottom=0;right=0;editable=1;overflow=hidden;whiteSpace=wrap;html=1;" parent="rtVFUpa8TtXIbBBt4PkI-258" vertex="1">
          <mxGeometry width="59.99999999999977" height="30" as="geometry">
            <mxRectangle width="59.99999999999977" height="30" as="alternateBounds" />
          </mxGeometry>
        </mxCell>
        <mxCell id="rtVFUpa8TtXIbBBt4PkI-260" value="is_active" style="shape=partialRectangle;connectable=0;fillColor=none;top=0;left=0;bottom=0;right=0;align=left;spacingLeft=6;overflow=hidden;whiteSpace=wrap;html=1;" parent="rtVFUpa8TtXIbBBt4PkI-258" vertex="1">
          <mxGeometry x="59.99999999999977" width="140.00000000000023" height="30" as="geometry">
            <mxRectangle width="140.00000000000023" height="30" as="alternateBounds" />
          </mxGeometry>
        </mxCell>
        <mxCell id="rtVFUpa8TtXIbBBt4PkI-261" value="boolean default true" style="shape=partialRectangle;connectable=0;fillColor=none;top=0;left=0;bottom=0;right=0;align=left;spacingLeft=6;overflow=hidden;whiteSpace=wrap;html=1;" parent="rtVFUpa8TtXIbBBt4PkI-258" vertex="1">
          <mxGeometry x="200" width="130" height="30" as="geometry">
            <mxRectangle width="130" height="30" as="alternateBounds" />
          </mxGeometry>
        </mxCell>
        <mxCell id="rtVFUpa8TtXIbBBt4PkI-262" value="" style="edgeStyle=orthogonalEdgeStyle;fontSize=12;html=1;endArrow=ERzeroToMany;startArrow=ERzeroToOne;rounded=0;exitX=0;exitY=0.5;exitDx=0;exitDy=0;entryX=1;entryY=0.5;entryDx=0;entryDy=0;curved=1;" parent="1" source="rtVFUpa8TtXIbBBt4PkI-226" target="rtVFUpa8TtXIbBBt4PkI-163" edge="1">
          <mxGeometry width="100" height="100" relative="1" as="geometry">
            <mxPoint x="360" y="1060" as="sourcePoint" />
            <mxPoint x="460" y="960" as="targetPoint" />
          </mxGeometry>
        </mxCell>
        <mxCell id="rtVFUpa8TtXIbBBt4PkI-263" value="reports" style="shape=table;startSize=30;container=1;collapsible=1;childLayout=tableLayout;fixedRows=1;rowLines=0;fontStyle=1;align=center;resizeLast=1;html=1;" parent="1" vertex="1">
          <mxGeometry x="910" y="30" width="360" height="330" as="geometry" />
        </mxCell>
        <mxCell id="rtVFUpa8TtXIbBBt4PkI-264" value="" style="shape=tableRow;horizontal=0;startSize=0;swimlaneHead=0;swimlaneBody=0;fillColor=none;collapsible=0;dropTarget=0;points=[[0,0.5],[1,0.5]];portConstraint=eastwest;top=0;left=0;right=0;bottom=1;" parent="rtVFUpa8TtXIbBBt4PkI-263" vertex="1">
          <mxGeometry y="30" width="360" height="30" as="geometry" />
        </mxCell>
        <mxCell id="rtVFUpa8TtXIbBBt4PkI-265" value="PK" style="shape=partialRectangle;connectable=0;fillColor=none;top=0;left=0;bottom=0;right=0;fontStyle=1;overflow=hidden;whiteSpace=wrap;html=1;" parent="rtVFUpa8TtXIbBBt4PkI-264" vertex="1">
          <mxGeometry width="30" height="30" as="geometry">
            <mxRectangle width="30" height="30" as="alternateBounds" />
          </mxGeometry>
        </mxCell>
        <mxCell id="rtVFUpa8TtXIbBBt4PkI-266" value="UniqueID" style="shape=partialRectangle;connectable=0;fillColor=none;top=0;left=0;bottom=0;right=0;align=left;spacingLeft=6;fontStyle=5;overflow=hidden;whiteSpace=wrap;html=1;" parent="rtVFUpa8TtXIbBBt4PkI-264" vertex="1">
          <mxGeometry x="30" width="150" height="30" as="geometry">
            <mxRectangle width="150" height="30" as="alternateBounds" />
          </mxGeometry>
        </mxCell>
        <mxCell id="rtVFUpa8TtXIbBBt4PkI-276" value="serial" style="shape=partialRectangle;connectable=0;fillColor=none;top=0;left=0;bottom=0;right=0;align=left;spacingLeft=6;fontStyle=5;overflow=hidden;whiteSpace=wrap;html=1;" parent="rtVFUpa8TtXIbBBt4PkI-264" vertex="1">
          <mxGeometry x="180" width="180" height="30" as="geometry">
            <mxRectangle width="180" height="30" as="alternateBounds" />
          </mxGeometry>
        </mxCell>
        <mxCell id="rtVFUpa8TtXIbBBt4PkI-267" value="" style="shape=tableRow;horizontal=0;startSize=0;swimlaneHead=0;swimlaneBody=0;fillColor=none;collapsible=0;dropTarget=0;points=[[0,0.5],[1,0.5]];portConstraint=eastwest;top=0;left=0;right=0;bottom=0;" parent="rtVFUpa8TtXIbBBt4PkI-263" vertex="1">
          <mxGeometry y="60" width="360" height="30" as="geometry" />
        </mxCell>
        <mxCell id="rtVFUpa8TtXIbBBt4PkI-268" value="&lt;span style=&quot;font-weight: 700;&quot;&gt;FK&lt;/span&gt;" style="shape=partialRectangle;connectable=0;fillColor=none;top=0;left=0;bottom=0;right=0;editable=1;overflow=hidden;whiteSpace=wrap;html=1;" parent="rtVFUpa8TtXIbBBt4PkI-267" vertex="1">
          <mxGeometry width="30" height="30" as="geometry">
            <mxRectangle width="30" height="30" as="alternateBounds" />
          </mxGeometry>
        </mxCell>
        <mxCell id="rtVFUpa8TtXIbBBt4PkI-269" value="staff_id" style="shape=partialRectangle;connectable=0;fillColor=none;top=0;left=0;bottom=0;right=0;align=left;spacingLeft=6;overflow=hidden;whiteSpace=wrap;html=1;" parent="rtVFUpa8TtXIbBBt4PkI-267" vertex="1">
          <mxGeometry x="30" width="150" height="30" as="geometry">
            <mxRectangle width="150" height="30" as="alternateBounds" />
          </mxGeometry>
        </mxCell>
        <mxCell id="rtVFUpa8TtXIbBBt4PkI-277" value="&lt;span style=&quot;font-weight: 700;&quot;&gt;Reference user_id&lt;/span&gt;" style="shape=partialRectangle;connectable=0;fillColor=none;top=0;left=0;bottom=0;right=0;align=left;spacingLeft=6;overflow=hidden;whiteSpace=wrap;html=1;" parent="rtVFUpa8TtXIbBBt4PkI-267" vertex="1">
          <mxGeometry x="180" width="180" height="30" as="geometry">
            <mxRectangle width="180" height="30" as="alternateBounds" />
          </mxGeometry>
        </mxCell>
        <mxCell id="rtVFUpa8TtXIbBBt4PkI-270" value="" style="shape=tableRow;horizontal=0;startSize=0;swimlaneHead=0;swimlaneBody=0;fillColor=none;collapsible=0;dropTarget=0;points=[[0,0.5],[1,0.5]];portConstraint=eastwest;top=0;left=0;right=0;bottom=0;" parent="rtVFUpa8TtXIbBBt4PkI-263" vertex="1">
          <mxGeometry y="90" width="360" height="30" as="geometry" />
        </mxCell>
        <mxCell id="rtVFUpa8TtXIbBBt4PkI-271" value="&lt;span style=&quot;font-weight: 700;&quot;&gt;FK&lt;/span&gt;" style="shape=partialRectangle;connectable=0;fillColor=none;top=0;left=0;bottom=0;right=0;editable=1;overflow=hidden;whiteSpace=wrap;html=1;" parent="rtVFUpa8TtXIbBBt4PkI-270" vertex="1">
          <mxGeometry width="30" height="30" as="geometry">
            <mxRectangle width="30" height="30" as="alternateBounds" />
          </mxGeometry>
        </mxCell>
        <mxCell id="rtVFUpa8TtXIbBBt4PkI-272" value="room_id" style="shape=partialRectangle;connectable=0;fillColor=none;top=0;left=0;bottom=0;right=0;align=left;spacingLeft=6;overflow=hidden;whiteSpace=wrap;html=1;" parent="rtVFUpa8TtXIbBBt4PkI-270" vertex="1">
          <mxGeometry x="30" width="150" height="30" as="geometry">
            <mxRectangle width="150" height="30" as="alternateBounds" />
          </mxGeometry>
        </mxCell>
        <mxCell id="rtVFUpa8TtXIbBBt4PkI-278" value="&lt;span style=&quot;font-weight: 700;&quot;&gt;Reference room_id&lt;/span&gt;" style="shape=partialRectangle;connectable=0;fillColor=none;top=0;left=0;bottom=0;right=0;align=left;spacingLeft=6;overflow=hidden;whiteSpace=wrap;html=1;" parent="rtVFUpa8TtXIbBBt4PkI-270" vertex="1">
          <mxGeometry x="180" width="180" height="30" as="geometry">
            <mxRectangle width="180" height="30" as="alternateBounds" />
          </mxGeometry>
        </mxCell>
        <mxCell id="rtVFUpa8TtXIbBBt4PkI-273" value="" style="shape=tableRow;horizontal=0;startSize=0;swimlaneHead=0;swimlaneBody=0;fillColor=none;collapsible=0;dropTarget=0;points=[[0,0.5],[1,0.5]];portConstraint=eastwest;top=0;left=0;right=0;bottom=0;" parent="rtVFUpa8TtXIbBBt4PkI-263" vertex="1">
          <mxGeometry y="120" width="360" height="30" as="geometry" />
        </mxCell>
        <mxCell id="rtVFUpa8TtXIbBBt4PkI-274" value="Not null" style="shape=partialRectangle;connectable=0;fillColor=none;top=0;left=0;bottom=0;right=0;editable=1;overflow=hidden;whiteSpace=wrap;html=1;" parent="rtVFUpa8TtXIbBBt4PkI-273" vertex="1">
          <mxGeometry width="30" height="30" as="geometry">
            <mxRectangle width="30" height="30" as="alternateBounds" />
          </mxGeometry>
        </mxCell>
        <mxCell id="rtVFUpa8TtXIbBBt4PkI-275" value="deatails" style="shape=partialRectangle;connectable=0;fillColor=none;top=0;left=0;bottom=0;right=0;align=left;spacingLeft=6;overflow=hidden;whiteSpace=wrap;html=1;" parent="rtVFUpa8TtXIbBBt4PkI-273" vertex="1">
          <mxGeometry x="30" width="150" height="30" as="geometry">
            <mxRectangle width="150" height="30" as="alternateBounds" />
          </mxGeometry>
        </mxCell>
        <mxCell id="rtVFUpa8TtXIbBBt4PkI-279" value="TEXT" style="shape=partialRectangle;connectable=0;fillColor=none;top=0;left=0;bottom=0;right=0;align=left;spacingLeft=6;overflow=hidden;whiteSpace=wrap;html=1;" parent="rtVFUpa8TtXIbBBt4PkI-273" vertex="1">
          <mxGeometry x="180" width="180" height="30" as="geometry">
            <mxRectangle width="180" height="30" as="alternateBounds" />
          </mxGeometry>
        </mxCell>
        <mxCell id="rtVFUpa8TtXIbBBt4PkI-283" style="shape=tableRow;horizontal=0;startSize=0;swimlaneHead=0;swimlaneBody=0;fillColor=none;collapsible=0;dropTarget=0;points=[[0,0.5],[1,0.5]];portConstraint=eastwest;top=0;left=0;right=0;bottom=0;" parent="rtVFUpa8TtXIbBBt4PkI-263" vertex="1">
          <mxGeometry y="150" width="360" height="60" as="geometry" />
        </mxCell>
        <mxCell id="rtVFUpa8TtXIbBBt4PkI-284" value="Not null" style="shape=partialRectangle;connectable=0;fillColor=none;top=0;left=0;bottom=0;right=0;editable=1;overflow=hidden;whiteSpace=wrap;html=1;" parent="rtVFUpa8TtXIbBBt4PkI-283" vertex="1">
          <mxGeometry width="30" height="60" as="geometry">
            <mxRectangle width="30" height="60" as="alternateBounds" />
          </mxGeometry>
        </mxCell>
        <mxCell id="rtVFUpa8TtXIbBBt4PkI-285" value="stats (submitted, approved, rejected, fixed&amp;nbsp; , cancelled, issue)" style="shape=partialRectangle;connectable=0;fillColor=none;top=0;left=0;bottom=0;right=0;align=left;spacingLeft=6;overflow=hidden;html=1;whiteSpace=wrap;" parent="rtVFUpa8TtXIbBBt4PkI-283" vertex="1">
          <mxGeometry x="30" width="150" height="60" as="geometry">
            <mxRectangle width="150" height="60" as="alternateBounds" />
          </mxGeometry>
        </mxCell>
        <mxCell id="rtVFUpa8TtXIbBBt4PkI-286" style="shape=partialRectangle;connectable=0;fillColor=none;top=0;left=0;bottom=0;right=0;align=left;spacingLeft=6;overflow=hidden;whiteSpace=wrap;html=1;" parent="rtVFUpa8TtXIbBBt4PkI-283" vertex="1">
          <mxGeometry x="180" width="180" height="60" as="geometry">
            <mxRectangle width="180" height="60" as="alternateBounds" />
          </mxGeometry>
        </mxCell>
        <mxCell id="rtVFUpa8TtXIbBBt4PkI-287" style="shape=tableRow;horizontal=0;startSize=0;swimlaneHead=0;swimlaneBody=0;fillColor=none;collapsible=0;dropTarget=0;points=[[0,0.5],[1,0.5]];portConstraint=eastwest;top=0;left=0;right=0;bottom=0;" parent="rtVFUpa8TtXIbBBt4PkI-263" vertex="1">
          <mxGeometry y="210" width="360" height="60" as="geometry" />
        </mxCell>
        <mxCell id="rtVFUpa8TtXIbBBt4PkI-288" value="Not null" style="shape=partialRectangle;connectable=0;fillColor=none;top=0;left=0;bottom=0;right=0;editable=1;overflow=hidden;whiteSpace=wrap;html=1;" parent="rtVFUpa8TtXIbBBt4PkI-287" vertex="1">
          <mxGeometry width="30" height="60" as="geometry">
            <mxRectangle width="30" height="60" as="alternateBounds" />
          </mxGeometry>
        </mxCell>
        <mxCell id="rtVFUpa8TtXIbBBt4PkI-289" value="created_date" style="shape=partialRectangle;connectable=0;fillColor=none;top=0;left=0;bottom=0;right=0;align=left;spacingLeft=6;overflow=hidden;html=1;whiteSpace=wrap;" parent="rtVFUpa8TtXIbBBt4PkI-287" vertex="1">
          <mxGeometry x="30" width="150" height="60" as="geometry">
            <mxRectangle width="150" height="60" as="alternateBounds" />
          </mxGeometry>
        </mxCell>
        <mxCell id="rtVFUpa8TtXIbBBt4PkI-290" value="timestamp default current time" style="shape=partialRectangle;connectable=0;fillColor=none;top=0;left=0;bottom=0;right=0;align=left;spacingLeft=6;overflow=hidden;whiteSpace=wrap;html=1;" parent="rtVFUpa8TtXIbBBt4PkI-287" vertex="1">
          <mxGeometry x="180" width="180" height="60" as="geometry">
            <mxRectangle width="180" height="60" as="alternateBounds" />
          </mxGeometry>
        </mxCell>
        <mxCell id="rtVFUpa8TtXIbBBt4PkI-291" style="shape=tableRow;horizontal=0;startSize=0;swimlaneHead=0;swimlaneBody=0;fillColor=none;collapsible=0;dropTarget=0;points=[[0,0.5],[1,0.5]];portConstraint=eastwest;top=0;left=0;right=0;bottom=0;" parent="rtVFUpa8TtXIbBBt4PkI-263" vertex="1">
          <mxGeometry y="270" width="360" height="60" as="geometry" />
        </mxCell>
        <mxCell id="rtVFUpa8TtXIbBBt4PkI-292" value="" style="shape=partialRectangle;connectable=0;fillColor=none;top=0;left=0;bottom=0;right=0;editable=1;overflow=hidden;whiteSpace=wrap;html=1;" parent="rtVFUpa8TtXIbBBt4PkI-291" vertex="1">
          <mxGeometry width="30" height="60" as="geometry">
            <mxRectangle width="30" height="60" as="alternateBounds" />
          </mxGeometry>
        </mxCell>
        <mxCell id="rtVFUpa8TtXIbBBt4PkI-293" value="updatrd_date" style="shape=partialRectangle;connectable=0;fillColor=none;top=0;left=0;bottom=0;right=0;align=left;spacingLeft=6;overflow=hidden;html=1;whiteSpace=wrap;" parent="rtVFUpa8TtXIbBBt4PkI-291" vertex="1">
          <mxGeometry x="30" width="150" height="60" as="geometry">
            <mxRectangle width="150" height="60" as="alternateBounds" />
          </mxGeometry>
        </mxCell>
        <mxCell id="rtVFUpa8TtXIbBBt4PkI-294" value="timestamp&amp;nbsp;" style="shape=partialRectangle;connectable=0;fillColor=none;top=0;left=0;bottom=0;right=0;align=left;spacingLeft=6;overflow=hidden;whiteSpace=wrap;html=1;" parent="rtVFUpa8TtXIbBBt4PkI-291" vertex="1">
          <mxGeometry x="180" width="180" height="60" as="geometry">
            <mxRectangle width="180" height="60" as="alternateBounds" />
          </mxGeometry>
        </mxCell>
        <mxCell id="rtVFUpa8TtXIbBBt4PkI-281" value="" style="edgeStyle=orthogonalEdgeStyle;fontSize=12;html=1;endArrow=ERmandOne;startArrow=ERmandOne;rounded=0;entryX=1;entryY=0.5;entryDx=0;entryDy=0;exitX=0;exitY=0.5;exitDx=0;exitDy=0;curved=1;" parent="1" source="rtVFUpa8TtXIbBBt4PkI-267" target="rtVFUpa8TtXIbBBt4PkI-4" edge="1">
          <mxGeometry width="100" height="100" relative="1" as="geometry">
            <mxPoint x="700" y="290" as="sourcePoint" />
            <mxPoint x="800" y="190" as="targetPoint" />
            <Array as="points">
              <mxPoint x="830" y="105" />
              <mxPoint x="830" y="50" />
              <mxPoint x="720" y="50" />
              <mxPoint x="720" y="60" />
              <mxPoint x="560" y="60" />
              <mxPoint x="560" y="115" />
            </Array>
          </mxGeometry>
        </mxCell>
        <mxCell id="rtVFUpa8TtXIbBBt4PkI-282" value="" style="edgeStyle=orthogonalEdgeStyle;fontSize=12;html=1;endArrow=ERmandOne;startArrow=ERmandOne;rounded=0;entryX=0;entryY=0.5;entryDx=0;entryDy=0;exitX=1;exitY=0.5;exitDx=0;exitDy=0;curved=1;" parent="1" source="rtVFUpa8TtXIbBBt4PkI-41" target="rtVFUpa8TtXIbBBt4PkI-270" edge="1">
          <mxGeometry width="100" height="100" relative="1" as="geometry">
            <mxPoint x="820" y="490" as="sourcePoint" />
            <mxPoint x="920" y="390" as="targetPoint" />
          </mxGeometry>
        </mxCell>
        <mxCell id="rtVFUpa8TtXIbBBt4PkI-295" value="report_attachment" style="shape=table;startSize=30;container=1;collapsible=1;childLayout=tableLayout;fixedRows=1;rowLines=0;fontStyle=1;align=center;resizeLast=1;html=1;whiteSpace=wrap;" parent="1" vertex="1">
          <mxGeometry x="1450" y="90" width="300" height="150" as="geometry" />
        </mxCell>
        <mxCell id="rtVFUpa8TtXIbBBt4PkI-296" value="" style="shape=tableRow;horizontal=0;startSize=0;swimlaneHead=0;swimlaneBody=0;fillColor=none;collapsible=0;dropTarget=0;points=[[0,0.5],[1,0.5]];portConstraint=eastwest;top=0;left=0;right=0;bottom=0;html=1;" parent="rtVFUpa8TtXIbBBt4PkI-295" vertex="1">
          <mxGeometry y="30" width="300" height="30" as="geometry" />
        </mxCell>
        <mxCell id="rtVFUpa8TtXIbBBt4PkI-297" value="PK" style="shape=partialRectangle;connectable=0;fillColor=none;top=0;left=0;bottom=0;right=0;fontStyle=1;overflow=hidden;html=1;whiteSpace=wrap;" parent="rtVFUpa8TtXIbBBt4PkI-296" vertex="1">
          <mxGeometry width="60" height="30" as="geometry">
            <mxRectangle width="60" height="30" as="alternateBounds" />
          </mxGeometry>
        </mxCell>
        <mxCell id="rtVFUpa8TtXIbBBt4PkI-298" value="UniqueID" style="shape=partialRectangle;connectable=0;fillColor=none;top=0;left=0;bottom=0;right=0;align=left;spacingLeft=6;fontStyle=5;overflow=hidden;html=1;whiteSpace=wrap;" parent="rtVFUpa8TtXIbBBt4PkI-296" vertex="1">
          <mxGeometry x="60" width="120" height="30" as="geometry">
            <mxRectangle width="120" height="30" as="alternateBounds" />
          </mxGeometry>
        </mxCell>
        <mxCell id="rtVFUpa8TtXIbBBt4PkI-308" value="serial" style="shape=partialRectangle;connectable=0;fillColor=none;top=0;left=0;bottom=0;right=0;align=left;spacingLeft=6;fontStyle=5;overflow=hidden;html=1;whiteSpace=wrap;" parent="rtVFUpa8TtXIbBBt4PkI-296" vertex="1">
          <mxGeometry x="180" width="120" height="30" as="geometry">
            <mxRectangle width="120" height="30" as="alternateBounds" />
          </mxGeometry>
        </mxCell>
        <mxCell id="rtVFUpa8TtXIbBBt4PkI-299" value="" style="shape=tableRow;horizontal=0;startSize=0;swimlaneHead=0;swimlaneBody=0;fillColor=none;collapsible=0;dropTarget=0;points=[[0,0.5],[1,0.5]];portConstraint=eastwest;top=0;left=0;right=0;bottom=1;html=1;" parent="rtVFUpa8TtXIbBBt4PkI-295" vertex="1">
          <mxGeometry y="60" width="300" height="30" as="geometry" />
        </mxCell>
        <mxCell id="rtVFUpa8TtXIbBBt4PkI-300" value="FK" style="shape=partialRectangle;connectable=0;fillColor=none;top=0;left=0;bottom=0;right=0;fontStyle=1;overflow=hidden;html=1;whiteSpace=wrap;" parent="rtVFUpa8TtXIbBBt4PkI-299" vertex="1">
          <mxGeometry width="60" height="30" as="geometry">
            <mxRectangle width="60" height="30" as="alternateBounds" />
          </mxGeometry>
        </mxCell>
        <mxCell id="rtVFUpa8TtXIbBBt4PkI-301" value="report_id" style="shape=partialRectangle;connectable=0;fillColor=none;top=0;left=0;bottom=0;right=0;align=left;spacingLeft=6;fontStyle=5;overflow=hidden;html=1;whiteSpace=wrap;" parent="rtVFUpa8TtXIbBBt4PkI-299" vertex="1">
          <mxGeometry x="60" width="120" height="30" as="geometry">
            <mxRectangle width="120" height="30" as="alternateBounds" />
          </mxGeometry>
        </mxCell>
        <mxCell id="rtVFUpa8TtXIbBBt4PkI-309" value="Referecne report_id" style="shape=partialRectangle;connectable=0;fillColor=none;top=0;left=0;bottom=0;right=0;align=left;spacingLeft=6;fontStyle=5;overflow=hidden;html=1;whiteSpace=wrap;" parent="rtVFUpa8TtXIbBBt4PkI-299" vertex="1">
          <mxGeometry x="180" width="120" height="30" as="geometry">
            <mxRectangle width="120" height="30" as="alternateBounds" />
          </mxGeometry>
        </mxCell>
        <mxCell id="rtVFUpa8TtXIbBBt4PkI-302" value="" style="shape=tableRow;horizontal=0;startSize=0;swimlaneHead=0;swimlaneBody=0;fillColor=none;collapsible=0;dropTarget=0;points=[[0,0.5],[1,0.5]];portConstraint=eastwest;top=0;left=0;right=0;bottom=0;html=1;" parent="rtVFUpa8TtXIbBBt4PkI-295" vertex="1">
          <mxGeometry y="90" width="300" height="30" as="geometry" />
        </mxCell>
        <mxCell id="rtVFUpa8TtXIbBBt4PkI-303" value="not null" style="shape=partialRectangle;connectable=0;fillColor=none;top=0;left=0;bottom=0;right=0;editable=1;overflow=hidden;html=1;whiteSpace=wrap;" parent="rtVFUpa8TtXIbBBt4PkI-302" vertex="1">
          <mxGeometry width="60" height="30" as="geometry">
            <mxRectangle width="60" height="30" as="alternateBounds" />
          </mxGeometry>
        </mxCell>
        <mxCell id="rtVFUpa8TtXIbBBt4PkI-304" value="file_url" style="shape=partialRectangle;connectable=0;fillColor=none;top=0;left=0;bottom=0;right=0;align=left;spacingLeft=6;overflow=hidden;html=1;whiteSpace=wrap;" parent="rtVFUpa8TtXIbBBt4PkI-302" vertex="1">
          <mxGeometry x="60" width="120" height="30" as="geometry">
            <mxRectangle width="120" height="30" as="alternateBounds" />
          </mxGeometry>
        </mxCell>
        <mxCell id="rtVFUpa8TtXIbBBt4PkI-310" value="varchar" style="shape=partialRectangle;connectable=0;fillColor=none;top=0;left=0;bottom=0;right=0;align=left;spacingLeft=6;overflow=hidden;html=1;whiteSpace=wrap;" parent="rtVFUpa8TtXIbBBt4PkI-302" vertex="1">
          <mxGeometry x="180" width="120" height="30" as="geometry">
            <mxRectangle width="120" height="30" as="alternateBounds" />
          </mxGeometry>
        </mxCell>
        <mxCell id="rtVFUpa8TtXIbBBt4PkI-305" value="" style="shape=tableRow;horizontal=0;startSize=0;swimlaneHead=0;swimlaneBody=0;fillColor=none;collapsible=0;dropTarget=0;points=[[0,0.5],[1,0.5]];portConstraint=eastwest;top=0;left=0;right=0;bottom=0;html=1;" parent="rtVFUpa8TtXIbBBt4PkI-295" vertex="1">
          <mxGeometry y="120" width="300" height="30" as="geometry" />
        </mxCell>
        <mxCell id="rtVFUpa8TtXIbBBt4PkI-306" value="not null" style="shape=partialRectangle;connectable=0;fillColor=none;top=0;left=0;bottom=0;right=0;editable=1;overflow=hidden;html=1;whiteSpace=wrap;" parent="rtVFUpa8TtXIbBBt4PkI-305" vertex="1">
          <mxGeometry width="60" height="30" as="geometry">
            <mxRectangle width="60" height="30" as="alternateBounds" />
          </mxGeometry>
        </mxCell>
        <mxCell id="rtVFUpa8TtXIbBBt4PkI-307" value="created_at" style="shape=partialRectangle;connectable=0;fillColor=none;top=0;left=0;bottom=0;right=0;align=left;spacingLeft=6;overflow=hidden;html=1;whiteSpace=wrap;" parent="rtVFUpa8TtXIbBBt4PkI-305" vertex="1">
          <mxGeometry x="60" width="120" height="30" as="geometry">
            <mxRectangle width="120" height="30" as="alternateBounds" />
          </mxGeometry>
        </mxCell>
        <mxCell id="rtVFUpa8TtXIbBBt4PkI-311" value="timestamp default current time" style="shape=partialRectangle;connectable=0;fillColor=none;top=0;left=0;bottom=0;right=0;align=left;spacingLeft=6;overflow=hidden;html=1;whiteSpace=wrap;" parent="rtVFUpa8TtXIbBBt4PkI-305" vertex="1">
          <mxGeometry x="180" width="120" height="30" as="geometry">
            <mxRectangle width="120" height="30" as="alternateBounds" />
          </mxGeometry>
        </mxCell>
        <mxCell id="rtVFUpa8TtXIbBBt4PkI-313" value="" style="edgeStyle=orthogonalEdgeStyle;fontSize=12;html=1;endArrow=ERmandOne;rounded=0;exitX=0;exitY=0.5;exitDx=0;exitDy=0;entryX=1;entryY=0.5;entryDx=0;entryDy=0;curved=1;" parent="1" source="rtVFUpa8TtXIbBBt4PkI-299" target="rtVFUpa8TtXIbBBt4PkI-264" edge="1">
          <mxGeometry width="100" height="100" relative="1" as="geometry">
            <mxPoint x="930" y="400" as="sourcePoint" />
            <mxPoint x="1030" y="300" as="targetPoint" />
          </mxGeometry>
        </mxCell>
        <mxCell id="rtVFUpa8TtXIbBBt4PkI-314" value="notification" style="shape=table;startSize=30;container=1;collapsible=1;childLayout=tableLayout;fixedRows=1;rowLines=0;fontStyle=1;align=center;resizeLast=1;html=1;" parent="1" vertex="1">
          <mxGeometry x="1030" y="430" width="330" height="180" as="geometry" />
        </mxCell>
        <mxCell id="rtVFUpa8TtXIbBBt4PkI-315" value="" style="shape=tableRow;horizontal=0;startSize=0;swimlaneHead=0;swimlaneBody=0;fillColor=none;collapsible=0;dropTarget=0;points=[[0,0.5],[1,0.5]];portConstraint=eastwest;top=0;left=0;right=0;bottom=1;" parent="rtVFUpa8TtXIbBBt4PkI-314" vertex="1">
          <mxGeometry y="30" width="330" height="30" as="geometry" />
        </mxCell>
        <mxCell id="rtVFUpa8TtXIbBBt4PkI-316" value="PK" style="shape=partialRectangle;connectable=0;fillColor=none;top=0;left=0;bottom=0;right=0;fontStyle=1;overflow=hidden;whiteSpace=wrap;html=1;" parent="rtVFUpa8TtXIbBBt4PkI-315" vertex="1">
          <mxGeometry width="30" height="30" as="geometry">
            <mxRectangle width="30" height="30" as="alternateBounds" />
          </mxGeometry>
        </mxCell>
        <mxCell id="rtVFUpa8TtXIbBBt4PkI-317" value="UniqueID" style="shape=partialRectangle;connectable=0;fillColor=none;top=0;left=0;bottom=0;right=0;align=left;spacingLeft=6;fontStyle=5;overflow=hidden;whiteSpace=wrap;html=1;" parent="rtVFUpa8TtXIbBBt4PkI-315" vertex="1">
          <mxGeometry x="30" width="150" height="30" as="geometry">
            <mxRectangle width="150" height="30" as="alternateBounds" />
          </mxGeometry>
        </mxCell>
        <mxCell id="rtVFUpa8TtXIbBBt4PkI-327" value="serial" style="shape=partialRectangle;connectable=0;fillColor=none;top=0;left=0;bottom=0;right=0;align=left;spacingLeft=6;fontStyle=5;overflow=hidden;whiteSpace=wrap;html=1;" parent="rtVFUpa8TtXIbBBt4PkI-315" vertex="1">
          <mxGeometry x="180" width="150" height="30" as="geometry">
            <mxRectangle width="150" height="30" as="alternateBounds" />
          </mxGeometry>
        </mxCell>
        <mxCell id="rtVFUpa8TtXIbBBt4PkI-318" value="" style="shape=tableRow;horizontal=0;startSize=0;swimlaneHead=0;swimlaneBody=0;fillColor=none;collapsible=0;dropTarget=0;points=[[0,0.5],[1,0.5]];portConstraint=eastwest;top=0;left=0;right=0;bottom=0;" parent="rtVFUpa8TtXIbBBt4PkI-314" vertex="1">
          <mxGeometry y="60" width="330" height="30" as="geometry" />
        </mxCell>
        <mxCell id="rtVFUpa8TtXIbBBt4PkI-319" value="&lt;span style=&quot;font-weight: 700;&quot;&gt;FK&lt;/span&gt;" style="shape=partialRectangle;connectable=0;fillColor=none;top=0;left=0;bottom=0;right=0;editable=1;overflow=hidden;whiteSpace=wrap;html=1;" parent="rtVFUpa8TtXIbBBt4PkI-318" vertex="1">
          <mxGeometry width="30" height="30" as="geometry">
            <mxRectangle width="30" height="30" as="alternateBounds" />
          </mxGeometry>
        </mxCell>
        <mxCell id="rtVFUpa8TtXIbBBt4PkI-320" value="user_id" style="shape=partialRectangle;connectable=0;fillColor=none;top=0;left=0;bottom=0;right=0;align=left;spacingLeft=6;overflow=hidden;whiteSpace=wrap;html=1;" parent="rtVFUpa8TtXIbBBt4PkI-318" vertex="1">
          <mxGeometry x="30" width="150" height="30" as="geometry">
            <mxRectangle width="150" height="30" as="alternateBounds" />
          </mxGeometry>
        </mxCell>
        <mxCell id="rtVFUpa8TtXIbBBt4PkI-328" value="Reference user_id" style="shape=partialRectangle;connectable=0;fillColor=none;top=0;left=0;bottom=0;right=0;align=left;spacingLeft=6;overflow=hidden;whiteSpace=wrap;html=1;" parent="rtVFUpa8TtXIbBBt4PkI-318" vertex="1">
          <mxGeometry x="180" width="150" height="30" as="geometry">
            <mxRectangle width="150" height="30" as="alternateBounds" />
          </mxGeometry>
        </mxCell>
        <mxCell id="rtVFUpa8TtXIbBBt4PkI-321" value="" style="shape=tableRow;horizontal=0;startSize=0;swimlaneHead=0;swimlaneBody=0;fillColor=none;collapsible=0;dropTarget=0;points=[[0,0.5],[1,0.5]];portConstraint=eastwest;top=0;left=0;right=0;bottom=0;" parent="rtVFUpa8TtXIbBBt4PkI-314" vertex="1">
          <mxGeometry y="90" width="330" height="30" as="geometry" />
        </mxCell>
        <mxCell id="rtVFUpa8TtXIbBBt4PkI-322" value="&lt;span style=&quot;font-weight: 700;&quot;&gt;FK&lt;/span&gt;" style="shape=partialRectangle;connectable=0;fillColor=none;top=0;left=0;bottom=0;right=0;editable=1;overflow=hidden;whiteSpace=wrap;html=1;" parent="rtVFUpa8TtXIbBBt4PkI-321" vertex="1">
          <mxGeometry width="30" height="30" as="geometry">
            <mxRectangle width="30" height="30" as="alternateBounds" />
          </mxGeometry>
        </mxCell>
        <mxCell id="rtVFUpa8TtXIbBBt4PkI-323" value="booking_id" style="shape=partialRectangle;connectable=0;fillColor=none;top=0;left=0;bottom=0;right=0;align=left;spacingLeft=6;overflow=hidden;whiteSpace=wrap;html=1;" parent="rtVFUpa8TtXIbBBt4PkI-321" vertex="1">
          <mxGeometry x="30" width="150" height="30" as="geometry">
            <mxRectangle width="150" height="30" as="alternateBounds" />
          </mxGeometry>
        </mxCell>
        <mxCell id="rtVFUpa8TtXIbBBt4PkI-329" value="Reference booking_id" style="shape=partialRectangle;connectable=0;fillColor=none;top=0;left=0;bottom=0;right=0;align=left;spacingLeft=6;overflow=hidden;whiteSpace=wrap;html=1;" parent="rtVFUpa8TtXIbBBt4PkI-321" vertex="1">
          <mxGeometry x="180" width="150" height="30" as="geometry">
            <mxRectangle width="150" height="30" as="alternateBounds" />
          </mxGeometry>
        </mxCell>
        <mxCell id="rtVFUpa8TtXIbBBt4PkI-324" value="" style="shape=tableRow;horizontal=0;startSize=0;swimlaneHead=0;swimlaneBody=0;fillColor=none;collapsible=0;dropTarget=0;points=[[0,0.5],[1,0.5]];portConstraint=eastwest;top=0;left=0;right=0;bottom=0;" parent="rtVFUpa8TtXIbBBt4PkI-314" vertex="1">
          <mxGeometry y="120" width="330" height="30" as="geometry" />
        </mxCell>
        <mxCell id="rtVFUpa8TtXIbBBt4PkI-325" value="Notnull" style="shape=partialRectangle;connectable=0;fillColor=none;top=0;left=0;bottom=0;right=0;editable=1;overflow=hidden;whiteSpace=wrap;html=1;" parent="rtVFUpa8TtXIbBBt4PkI-324" vertex="1">
          <mxGeometry width="30" height="30" as="geometry">
            <mxRectangle width="30" height="30" as="alternateBounds" />
          </mxGeometry>
        </mxCell>
        <mxCell id="rtVFUpa8TtXIbBBt4PkI-326" value="title" style="shape=partialRectangle;connectable=0;fillColor=none;top=0;left=0;bottom=0;right=0;align=left;spacingLeft=6;overflow=hidden;whiteSpace=wrap;html=1;" parent="rtVFUpa8TtXIbBBt4PkI-324" vertex="1">
          <mxGeometry x="30" width="150" height="30" as="geometry">
            <mxRectangle width="150" height="30" as="alternateBounds" />
          </mxGeometry>
        </mxCell>
        <mxCell id="rtVFUpa8TtXIbBBt4PkI-330" value="varchar" style="shape=partialRectangle;connectable=0;fillColor=none;top=0;left=0;bottom=0;right=0;align=left;spacingLeft=6;overflow=hidden;whiteSpace=wrap;html=1;" parent="rtVFUpa8TtXIbBBt4PkI-324" vertex="1">
          <mxGeometry x="180" width="150" height="30" as="geometry">
            <mxRectangle width="150" height="30" as="alternateBounds" />
          </mxGeometry>
        </mxCell>
        <mxCell id="rtVFUpa8TtXIbBBt4PkI-331" style="shape=tableRow;horizontal=0;startSize=0;swimlaneHead=0;swimlaneBody=0;fillColor=none;collapsible=0;dropTarget=0;points=[[0,0.5],[1,0.5]];portConstraint=eastwest;top=0;left=0;right=0;bottom=0;" parent="rtVFUpa8TtXIbBBt4PkI-314" vertex="1">
          <mxGeometry y="150" width="330" height="30" as="geometry" />
        </mxCell>
        <mxCell id="rtVFUpa8TtXIbBBt4PkI-332" style="shape=partialRectangle;connectable=0;fillColor=none;top=0;left=0;bottom=0;right=0;editable=1;overflow=hidden;whiteSpace=wrap;html=1;" parent="rtVFUpa8TtXIbBBt4PkI-331" vertex="1">
          <mxGeometry width="30" height="30" as="geometry">
            <mxRectangle width="30" height="30" as="alternateBounds" />
          </mxGeometry>
        </mxCell>
        <mxCell id="rtVFUpa8TtXIbBBt4PkI-333" value="created_date" style="shape=partialRectangle;connectable=0;fillColor=none;top=0;left=0;bottom=0;right=0;align=left;spacingLeft=6;overflow=hidden;whiteSpace=wrap;html=1;" parent="rtVFUpa8TtXIbBBt4PkI-331" vertex="1">
          <mxGeometry x="30" width="150" height="30" as="geometry">
            <mxRectangle width="150" height="30" as="alternateBounds" />
          </mxGeometry>
        </mxCell>
        <mxCell id="rtVFUpa8TtXIbBBt4PkI-334" value="timestamp default current time" style="shape=partialRectangle;connectable=0;fillColor=none;top=0;left=0;bottom=0;right=0;align=left;spacingLeft=6;overflow=hidden;whiteSpace=wrap;html=1;" parent="rtVFUpa8TtXIbBBt4PkI-331" vertex="1">
          <mxGeometry x="180" width="150" height="30" as="geometry">
            <mxRectangle width="150" height="30" as="alternateBounds" />
          </mxGeometry>
        </mxCell>
        <mxCell id="rtVFUpa8TtXIbBBt4PkI-335" value="" style="edgeStyle=orthogonalEdgeStyle;fontSize=12;html=1;endArrow=ERmandOne;startArrow=ERmandOne;rounded=0;exitX=0;exitY=0.5;exitDx=0;exitDy=0;entryX=0;entryY=0.5;entryDx=0;entryDy=0;curved=1;" parent="1" source="rtVFUpa8TtXIbBBt4PkI-41" target="rtVFUpa8TtXIbBBt4PkI-150" edge="1">
          <mxGeometry width="100" height="100" relative="1" as="geometry">
            <mxPoint x="640" y="620" as="sourcePoint" />
            <mxPoint x="740" y="520" as="targetPoint" />
            <Array as="points">
              <mxPoint x="370" y="525" />
              <mxPoint x="370" y="1035" />
            </Array>
          </mxGeometry>
        </mxCell>
        <mxCell id="rtVFUpa8TtXIbBBt4PkI-339" value="" style="edgeStyle=orthogonalEdgeStyle;fontSize=12;html=1;endArrow=ERzeroToMany;startArrow=ERzeroToOne;rounded=0;exitDx=0;exitDy=0;entryDx=0;entryDy=0;exitX=0;exitY=0.5;curved=1;" parent="1" source="rtVFUpa8TtXIbBBt4PkI-4" target="rtVFUpa8TtXIbBBt4PkI-154" edge="1">
          <mxGeometry width="100" height="100" relative="1" as="geometry">
            <mxPoint x="409.9999999999998" y="1060" as="sourcePoint" />
            <mxPoint x="429.9999999999998" y="620" as="targetPoint" />
            <Array as="points">
              <mxPoint x="130" y="115" />
              <mxPoint x="130" y="125" />
              <mxPoint x="30" y="125" />
              <mxPoint x="30" y="1005" />
            </Array>
          </mxGeometry>
        </mxCell>
        <mxCell id="rtVFUpa8TtXIbBBt4PkI-341" value="" style="edgeStyle=orthogonalEdgeStyle;fontSize=12;html=1;endArrow=ERmandOne;startArrow=ERmandOne;rounded=0;entryX=0;entryY=0.5;entryDx=0;entryDy=0;elbow=vertical;curved=1;exitX=1;exitY=0.5;exitDx=0;exitDy=0;" parent="1" source="rtVFUpa8TtXIbBBt4PkI-4" target="rtVFUpa8TtXIbBBt4PkI-318" edge="1">
          <mxGeometry width="100" height="100" relative="1" as="geometry">
            <mxPoint x="690" y="130" as="sourcePoint" />
            <mxPoint x="800" y="530" as="targetPoint" />
          </mxGeometry>
        </mxCell>
        <mxCell id="rtVFUpa8TtXIbBBt4PkI-345" value="" style="edgeStyle=orthogonalEdgeStyle;fontSize=12;html=1;endArrow=ERmandOne;startArrow=ERmandOne;rounded=0;entryX=0;entryY=0.5;entryDx=0;entryDy=0;exitX=1;exitY=0.5;exitDx=0;exitDy=0;curved=1;" parent="1" source="rtVFUpa8TtXIbBBt4PkI-150" target="rtVFUpa8TtXIbBBt4PkI-321" edge="1">
          <mxGeometry width="100" height="100" relative="1" as="geometry">
            <mxPoint x="740" y="790" as="sourcePoint" />
            <mxPoint x="840" y="690" as="targetPoint" />
          </mxGeometry>
        </mxCell>
      </root>
    </mxGraphModel>
  </diagram>
  <diagram name="MONOLIT" id="b1baj8HPih0SjVdNrojM">
    <mxGraphModel dx="1577" dy="977" grid="1" gridSize="10" guides="1" tooltips="1" connect="1" arrows="1" fold="1" page="1" pageScale="1" pageWidth="827" pageHeight="1169" math="0" shadow="0">
      <root>
        <mxCell id="0" />
        <mxCell id="1" parent="0" />
        <mxCell id="1vcRRSwT8okddjyuv4U7-45" value="&lt;font style=&quot;font-size: 26px;&quot;&gt;APP (SRING BOOT)&lt;/font&gt;" style="rounded=0;whiteSpace=wrap;html=1;fillColor=none;strokeWidth=3;dashed=1;dashPattern=12 12;verticalAlign=top;" vertex="1" parent="1">
          <mxGeometry x="1140" y="200" width="1060" height="1050" as="geometry" />
        </mxCell>
        <mxCell id="1vcRRSwT8okddjyuv4U7-1" value="Actor" style="shape=umlActor;verticalLabelPosition=bottom;verticalAlign=top;html=1;" vertex="1" parent="1">
          <mxGeometry x="350" y="725" width="30" height="60" as="geometry" />
        </mxCell>
        <mxCell id="1vcRRSwT8okddjyuv4U7-40" style="edgeStyle=orthogonalEdgeStyle;rounded=0;orthogonalLoop=1;jettySize=auto;html=1;entryX=0;entryY=0.5;entryDx=0;entryDy=0;" edge="1" parent="1" source="1vcRRSwT8okddjyuv4U7-2" target="1vcRRSwT8okddjyuv4U7-8">
          <mxGeometry relative="1" as="geometry" />
        </mxCell>
        <mxCell id="1vcRRSwT8okddjyuv4U7-41" style="edgeStyle=orthogonalEdgeStyle;rounded=0;orthogonalLoop=1;jettySize=auto;html=1;entryX=0;entryY=0.5;entryDx=0;entryDy=0;" edge="1" parent="1" source="1vcRRSwT8okddjyuv4U7-2" target="1vcRRSwT8okddjyuv4U7-9">
          <mxGeometry relative="1" as="geometry" />
        </mxCell>
        <mxCell id="1vcRRSwT8okddjyuv4U7-42" style="edgeStyle=orthogonalEdgeStyle;rounded=0;orthogonalLoop=1;jettySize=auto;html=1;entryX=0;entryY=0.75;entryDx=0;entryDy=0;" edge="1" parent="1" source="1vcRRSwT8okddjyuv4U7-2" target="1vcRRSwT8okddjyuv4U7-10">
          <mxGeometry relative="1" as="geometry" />
        </mxCell>
        <mxCell id="1vcRRSwT8okddjyuv4U7-2" value="API (CONTROLLERS)" style="shape=process;whiteSpace=wrap;html=1;backgroundOutline=1;fillColor=#e1d5e7;strokeColor=#9673a6;" vertex="1" parent="1">
          <mxGeometry x="1210" y="480" width="130" height="450" as="geometry" />
        </mxCell>
        <mxCell id="1vcRRSwT8okddjyuv4U7-3" value="TELEGRAM BOT" style="rounded=0;whiteSpace=wrap;html=1;fillColor=#d5e8d4;strokeColor=#82b366;" vertex="1" parent="1">
          <mxGeometry x="610" y="495" width="120" height="590" as="geometry" />
        </mxCell>
        <mxCell id="1vcRRSwT8okddjyuv4U7-4" style="edgeStyle=orthogonalEdgeStyle;rounded=0;orthogonalLoop=1;jettySize=auto;html=1;startArrow=classic;startFill=1;shape=flexArrow;entryX=-0.001;entryY=0.442;entryDx=0;entryDy=0;entryPerimeter=0;" edge="1" parent="1" source="1vcRRSwT8okddjyuv4U7-1" target="1vcRRSwT8okddjyuv4U7-3">
          <mxGeometry relative="1" as="geometry">
            <mxPoint x="680" y="670" as="targetPoint" />
          </mxGeometry>
        </mxCell>
        <mxCell id="1vcRRSwT8okddjyuv4U7-5" style="edgeStyle=orthogonalEdgeStyle;rounded=0;orthogonalLoop=1;jettySize=auto;html=1;exitX=1;exitY=0.5;exitDx=0;exitDy=0;entryX=0.006;entryY=0.145;entryDx=0;entryDy=0;entryPerimeter=0;flowAnimation=1;fillColor=#d5e8d4;strokeColor=#82b366;strokeWidth=2;startArrow=classic;startFill=1;" edge="1" parent="1" source="1vcRRSwT8okddjyuv4U7-6" target="1vcRRSwT8okddjyuv4U7-2">
          <mxGeometry relative="1" as="geometry">
            <mxPoint x="835" y="335" as="sourcePoint" />
            <mxPoint x="1050" y="500" as="targetPoint" />
          </mxGeometry>
        </mxCell>
        <mxCell id="1vcRRSwT8okddjyuv4U7-6" value="TELEGRAM API" style="whiteSpace=wrap;html=1;aspect=fixed;fillColor=#d5e8d4;strokeColor=#82b366;" vertex="1" parent="1">
          <mxGeometry x="830" y="695" width="110" height="110" as="geometry" />
        </mxCell>
        <mxCell id="1vcRRSwT8okddjyuv4U7-7" style="edgeStyle=orthogonalEdgeStyle;rounded=0;orthogonalLoop=1;jettySize=auto;html=1;fillColor=#d5e8d4;strokeColor=#82b366;flowAnimation=1;strokeWidth=2;entryX=1.001;entryY=0.432;entryDx=0;entryDy=0;entryPerimeter=0;startArrow=classic;startFill=1;" edge="1" parent="1" source="1vcRRSwT8okddjyuv4U7-6" target="1vcRRSwT8okddjyuv4U7-3">
          <mxGeometry relative="1" as="geometry" />
        </mxCell>
        <mxCell id="1vcRRSwT8okddjyuv4U7-8" value="USER SERVICE" style="shape=process;whiteSpace=wrap;html=1;backgroundOutline=1;fillColor=#dae8fc;strokeColor=#6c8ebf;" vertex="1" parent="1">
          <mxGeometry x="1540" y="305" width="120" height="210" as="geometry" />
        </mxCell>
        <mxCell id="1vcRRSwT8okddjyuv4U7-9" value="BOOKING SERVICE" style="shape=process;whiteSpace=wrap;html=1;backgroundOutline=1;fillColor=#ffe6cc;strokeColor=#d79b00;" vertex="1" parent="1">
          <mxGeometry x="1540" y="715" width="120" height="190" as="geometry" />
        </mxCell>
        <mxCell id="1vcRRSwT8okddjyuv4U7-47" style="edgeStyle=orthogonalEdgeStyle;rounded=0;orthogonalLoop=1;jettySize=auto;html=1;entryX=0;entryY=0.5;entryDx=0;entryDy=0;" edge="1" parent="1" source="1vcRRSwT8okddjyuv4U7-10" target="1vcRRSwT8okddjyuv4U7-46">
          <mxGeometry relative="1" as="geometry" />
        </mxCell>
        <mxCell id="1vcRRSwT8okddjyuv4U7-10" value="EMPLOYE SERVICE" style="shape=process;whiteSpace=wrap;html=1;backgroundOutline=1;fillColor=#f5f5f5;fontColor=#333333;strokeColor=#666666;" vertex="1" parent="1">
          <mxGeometry x="1541" y="1025" width="120" height="150" as="geometry" />
        </mxCell>
        <mxCell id="1vcRRSwT8okddjyuv4U7-14" style="edgeStyle=orthogonalEdgeStyle;rounded=0;orthogonalLoop=1;jettySize=auto;html=1;entryX=0.5;entryY=0;entryDx=0;entryDy=0;startArrow=classic;startFill=1;fillColor=#d5e8d4;strokeColor=#82b366;strokeWidth=2;flowAnimation=1;" edge="1" parent="1" source="1vcRRSwT8okddjyuv4U7-24" target="1vcRRSwT8okddjyuv4U7-6">
          <mxGeometry relative="1" as="geometry" />
        </mxCell>
        <mxCell id="1vcRRSwT8okddjyuv4U7-39" style="edgeStyle=orthogonalEdgeStyle;rounded=0;orthogonalLoop=1;jettySize=auto;html=1;entryX=0.5;entryY=0;entryDx=0;entryDy=0;entryPerimeter=0;flowAnimation=1;" edge="1" parent="1" source="1vcRRSwT8okddjyuv4U7-8" target="1vcRRSwT8okddjyuv4U7-33">
          <mxGeometry relative="1" as="geometry">
            <mxPoint x="2050" y="1310" as="targetPoint" />
            <mxPoint x="1700" y="389.9999999999998" as="sourcePoint" />
          </mxGeometry>
        </mxCell>
        <mxCell id="1vcRRSwT8okddjyuv4U7-24" value="TELEGRAM&lt;br&gt;SERVER" style="ellipse;shape=cloud;whiteSpace=wrap;html=1;fillColor=#d5e8d4;strokeColor=#82b366;" vertex="1" parent="1">
          <mxGeometry x="719.5" y="190" width="331" height="200" as="geometry" />
        </mxCell>
        <mxCell id="1vcRRSwT8okddjyuv4U7-33" value="&lt;font style=&quot;font-size: 13px;&quot;&gt;&lt;b&gt;PostreSQL&lt;/b&gt;&lt;/font&gt;" style="shape=cylinder3;whiteSpace=wrap;html=1;boundedLbl=1;backgroundOutline=1;size=15;fillColor=#f8cecc;strokeColor=#b85450;" vertex="1" parent="1">
          <mxGeometry x="2010" y="1310" width="70" height="90" as="geometry" />
        </mxCell>
        <mxCell id="1vcRRSwT8okddjyuv4U7-34" style="edgeStyle=orthogonalEdgeStyle;rounded=0;orthogonalLoop=1;jettySize=auto;html=1;entryX=0.5;entryY=0;entryDx=0;entryDy=0;dashed=1;startArrow=classic;startFill=1;flowAnimation=1;" edge="1" parent="1" source="1vcRRSwT8okddjyuv4U7-8" target="1vcRRSwT8okddjyuv4U7-9">
          <mxGeometry relative="1" as="geometry">
            <mxPoint x="1600.04" y="676.47" as="targetPoint" />
          </mxGeometry>
        </mxCell>
        <mxCell id="1vcRRSwT8okddjyuv4U7-35" style="edgeStyle=orthogonalEdgeStyle;rounded=0;orthogonalLoop=1;jettySize=auto;html=1;entryX=0.167;entryY=0.007;entryDx=0;entryDy=0;entryPerimeter=0;dashed=1;startArrow=classic;startFill=1;flowAnimation=1;exitX=0.5;exitY=1;exitDx=0;exitDy=0;" edge="1" parent="1" source="1vcRRSwT8okddjyuv4U7-9">
          <mxGeometry relative="1" as="geometry">
            <mxPoint x="1600" y="915" as="sourcePoint" />
            <mxPoint x="1599.55" y="1025" as="targetPoint" />
          </mxGeometry>
        </mxCell>
        <mxCell id="1vcRRSwT8okddjyuv4U7-36" value="Actor" style="shape=umlActor;verticalLabelPosition=bottom;verticalAlign=top;html=1;" vertex="1" parent="1">
          <mxGeometry x="360" y="745" width="30" height="60" as="geometry" />
        </mxCell>
        <mxCell id="1vcRRSwT8okddjyuv4U7-38" style="edgeStyle=orthogonalEdgeStyle;rounded=0;orthogonalLoop=1;jettySize=auto;html=1;entryX=0.5;entryY=0;entryDx=0;entryDy=0;entryPerimeter=0;exitX=1;exitY=0.5;exitDx=0;exitDy=0;flowAnimation=1;" edge="1" parent="1" source="1vcRRSwT8okddjyuv4U7-9" target="1vcRRSwT8okddjyuv4U7-33">
          <mxGeometry relative="1" as="geometry">
            <mxPoint x="1700" y="779.9999999999998" as="sourcePoint" />
          </mxGeometry>
        </mxCell>
        <mxCell id="1vcRRSwT8okddjyuv4U7-48" style="edgeStyle=orthogonalEdgeStyle;rounded=0;orthogonalLoop=1;jettySize=auto;html=1;entryX=0.5;entryY=0;entryDx=0;entryDy=0;entryPerimeter=0;flowAnimation=1;" edge="1" parent="1" source="1vcRRSwT8okddjyuv4U7-46" target="1vcRRSwT8okddjyuv4U7-33">
          <mxGeometry relative="1" as="geometry">
            <mxPoint x="2040" y="1316.1538461538462" as="targetPoint" />
          </mxGeometry>
        </mxCell>
        <mxCell id="1vcRRSwT8okddjyuv4U7-46" value="EMPLOYE REPOSITORY" style="shape=process;whiteSpace=wrap;html=1;backgroundOutline=1;fillColor=#f5f5f5;fontColor=#333333;strokeColor=#666666;" vertex="1" parent="1">
          <mxGeometry x="1760" y="1019" width="120" height="150" as="geometry" />
        </mxCell>
        <mxCell id="1vcRRSwT8okddjyuv4U7-49" value="BOOKING REPOSITORY" style="shape=process;whiteSpace=wrap;html=1;backgroundOutline=1;fillColor=#ffe6cc;strokeColor=#d79b00;" vertex="1" parent="1">
          <mxGeometry x="1780" y="710" width="120" height="190" as="geometry" />
        </mxCell>
        <mxCell id="1vcRRSwT8okddjyuv4U7-50" value="USER REPOSITORY" style="shape=process;whiteSpace=wrap;html=1;backgroundOutline=1;fillColor=#dae8fc;strokeColor=#6c8ebf;" vertex="1" parent="1">
          <mxGeometry x="1780" y="305" width="120" height="210" as="geometry" />
        </mxCell>
      </root>
    </mxGraphModel>
  </diagram>
  <diagram name="MICROSERVICES" id="lPKnJv6ahL4qLgG0jKpL">
    <mxGraphModel dx="853" dy="485" grid="1" gridSize="10" guides="1" tooltips="1" connect="1" arrows="1" fold="1" page="1" pageScale="1" pageWidth="827" pageHeight="1169" math="0" shadow="0">
      <root>
        <mxCell id="0" />
        <mxCell id="1" parent="0" />
        <mxCell id="m6PdmhpW_ULtBkdn9MRn-2" value="Actor" style="shape=umlActor;verticalLabelPosition=bottom;verticalAlign=top;html=1;" parent="1" vertex="1">
          <mxGeometry x="120" y="1020" width="30" height="60" as="geometry" />
        </mxCell>
        <mxCell id="m6PdmhpW_ULtBkdn9MRn-3" value="API GATEWAY&lt;br&gt;proxy&amp;nbsp;" style="shape=process;whiteSpace=wrap;html=1;backgroundOutline=1;fillColor=#e1d5e7;strokeColor=#9673a6;" parent="1" vertex="1">
          <mxGeometry x="800" y="730" width="120" height="800" as="geometry" />
        </mxCell>
        <mxCell id="m6PdmhpW_ULtBkdn9MRn-4" value="TELEGRAM BOT" style="rounded=0;whiteSpace=wrap;html=1;fillColor=#d5e8d4;strokeColor=#82b366;" parent="1" vertex="1">
          <mxGeometry x="380" y="790" width="120" height="590" as="geometry" />
        </mxCell>
        <mxCell id="m6PdmhpW_ULtBkdn9MRn-5" style="edgeStyle=orthogonalEdgeStyle;rounded=0;orthogonalLoop=1;jettySize=auto;html=1;startArrow=classic;startFill=1;shape=flexArrow;entryX=-0.001;entryY=0.442;entryDx=0;entryDy=0;entryPerimeter=0;" parent="1" source="m6PdmhpW_ULtBkdn9MRn-2" target="m6PdmhpW_ULtBkdn9MRn-4" edge="1">
          <mxGeometry relative="1" as="geometry">
            <mxPoint x="450" y="965" as="targetPoint" />
          </mxGeometry>
        </mxCell>
        <mxCell id="m6PdmhpW_ULtBkdn9MRn-7" style="edgeStyle=orthogonalEdgeStyle;rounded=0;orthogonalLoop=1;jettySize=auto;html=1;exitX=1;exitY=0.5;exitDx=0;exitDy=0;entryX=0.006;entryY=0.145;entryDx=0;entryDy=0;entryPerimeter=0;flowAnimation=1;fillColor=#d5e8d4;strokeColor=#82b366;strokeWidth=2;startArrow=classic;startFill=1;" parent="1" source="m6PdmhpW_ULtBkdn9MRn-8" target="m6PdmhpW_ULtBkdn9MRn-3" edge="1">
          <mxGeometry relative="1" as="geometry">
            <mxPoint x="605" y="630" as="sourcePoint" />
            <mxPoint x="820" y="795" as="targetPoint" />
          </mxGeometry>
        </mxCell>
        <mxCell id="m6PdmhpW_ULtBkdn9MRn-8" value="TELEGRAM API" style="whiteSpace=wrap;html=1;aspect=fixed;fillColor=#d5e8d4;strokeColor=#82b366;" parent="1" vertex="1">
          <mxGeometry x="600" y="990" width="110" height="110" as="geometry" />
        </mxCell>
        <mxCell id="m6PdmhpW_ULtBkdn9MRn-9" style="edgeStyle=orthogonalEdgeStyle;rounded=0;orthogonalLoop=1;jettySize=auto;html=1;fillColor=#d5e8d4;strokeColor=#82b366;flowAnimation=1;strokeWidth=2;entryX=1.001;entryY=0.432;entryDx=0;entryDy=0;entryPerimeter=0;startArrow=classic;startFill=1;" parent="1" source="m6PdmhpW_ULtBkdn9MRn-8" target="m6PdmhpW_ULtBkdn9MRn-4" edge="1">
          <mxGeometry relative="1" as="geometry" />
        </mxCell>
        <mxCell id="m6PdmhpW_ULtBkdn9MRn-10" value="USER SERVICE" style="shape=process;whiteSpace=wrap;html=1;backgroundOutline=1;fillColor=#dae8fc;strokeColor=#6c8ebf;" parent="1" vertex="1">
          <mxGeometry x="1310" y="600" width="120" height="210" as="geometry" />
        </mxCell>
        <mxCell id="m6PdmhpW_ULtBkdn9MRn-11" value="BOOKING SERVICE" style="shape=process;whiteSpace=wrap;html=1;backgroundOutline=1;fillColor=#ffe6cc;strokeColor=#d79b00;" parent="1" vertex="1">
          <mxGeometry x="1310" y="1010" width="120" height="190" as="geometry" />
        </mxCell>
        <mxCell id="m6PdmhpW_ULtBkdn9MRn-12" value="EMPLOYE SERVICE" style="shape=process;whiteSpace=wrap;html=1;backgroundOutline=1;fillColor=#f5f5f5;fontColor=#333333;strokeColor=#666666;" parent="1" vertex="1">
          <mxGeometry x="1311" y="1320" width="120" height="150" as="geometry" />
        </mxCell>
        <mxCell id="m6PdmhpW_ULtBkdn9MRn-19" style="edgeStyle=orthogonalEdgeStyle;rounded=0;orthogonalLoop=1;jettySize=auto;html=1;entryX=0.5;entryY=0;entryDx=0;entryDy=0;entryPerimeter=0;" parent="1" source="m6PdmhpW_ULtBkdn9MRn-11" edge="1">
          <mxGeometry relative="1" as="geometry">
            <Array as="points">
              <mxPoint x="1530" y="1160" />
              <mxPoint x="1530" y="1180" />
            </Array>
            <mxPoint x="1530.9999999999995" y="1180" as="targetPoint" />
          </mxGeometry>
        </mxCell>
        <mxCell id="m6PdmhpW_ULtBkdn9MRn-22" style="edgeStyle=orthogonalEdgeStyle;rounded=0;orthogonalLoop=1;jettySize=auto;html=1;exitX=0.993;exitY=0.113;exitDx=0;exitDy=0;exitPerimeter=0;startArrow=classic;startFill=1;strokeWidth=2;entryX=0;entryY=0.716;entryDx=0;entryDy=0;entryPerimeter=0;fillColor=#f8cecc;strokeColor=#b85450;flowAnimation=1;" parent="1" target="m6PdmhpW_ULtBkdn9MRn-10" edge="1">
          <mxGeometry relative="1" as="geometry">
            <mxPoint x="920.0000000000001" y="750.03" as="sourcePoint" />
            <mxPoint x="1300.8400000000001" y="750.31" as="targetPoint" />
          </mxGeometry>
        </mxCell>
        <mxCell id="m6PdmhpW_ULtBkdn9MRn-23" value="REST" style="edgeLabel;html=1;align=center;verticalAlign=middle;resizable=0;points=[];" parent="m6PdmhpW_ULtBkdn9MRn-22" vertex="1" connectable="0">
          <mxGeometry x="-0.2735" y="1" relative="1" as="geometry">
            <mxPoint x="49" y="-14" as="offset" />
          </mxGeometry>
        </mxCell>
        <mxCell id="m6PdmhpW_ULtBkdn9MRn-33" style="edgeStyle=orthogonalEdgeStyle;rounded=0;orthogonalLoop=1;jettySize=auto;html=1;entryX=0.5;entryY=0;entryDx=0;entryDy=0;startArrow=classic;startFill=1;fillColor=#d5e8d4;strokeColor=#82b366;strokeWidth=2;flowAnimation=1;" parent="1" source="m6PdmhpW_ULtBkdn9MRn-69" target="m6PdmhpW_ULtBkdn9MRn-8" edge="1">
          <mxGeometry relative="1" as="geometry" />
        </mxCell>
        <mxCell id="m6PdmhpW_ULtBkdn9MRn-34" style="edgeStyle=orthogonalEdgeStyle;rounded=0;orthogonalLoop=1;jettySize=auto;html=1;exitX=0.988;exitY=0.442;exitDx=0;exitDy=0;exitPerimeter=0;startArrow=classic;startFill=1;strokeWidth=2;flowAnimation=1;fillColor=#f8cecc;strokeColor=#b85450;" parent="1" source="m6PdmhpW_ULtBkdn9MRn-3" edge="1">
          <mxGeometry relative="1" as="geometry">
            <mxPoint x="929" y="920" as="sourcePoint" />
            <mxPoint x="1310" y="1084" as="targetPoint" />
          </mxGeometry>
        </mxCell>
        <mxCell id="m6PdmhpW_ULtBkdn9MRn-35" value="&lt;b&gt;REST&lt;/b&gt;" style="edgeLabel;html=1;align=center;verticalAlign=middle;resizable=0;points=[];" parent="m6PdmhpW_ULtBkdn9MRn-34" vertex="1" connectable="0">
          <mxGeometry x="-0.2735" y="1" relative="1" as="geometry">
            <mxPoint x="49" y="-14" as="offset" />
          </mxGeometry>
        </mxCell>
        <mxCell id="m6PdmhpW_ULtBkdn9MRn-39" value="" style="edgeStyle=orthogonalEdgeStyle;rounded=0;orthogonalLoop=1;jettySize=auto;html=1;entryX=0.5;entryY=0;entryDx=0;entryDy=0;entryPerimeter=0;" parent="1" source="m6PdmhpW_ULtBkdn9MRn-12" edge="1">
          <mxGeometry relative="1" as="geometry">
            <mxPoint x="1431" y="1450" as="sourcePoint" />
            <mxPoint x="1411" y="1360" as="targetPoint" />
            <Array as="points" />
          </mxGeometry>
        </mxCell>
        <mxCell id="m6PdmhpW_ULtBkdn9MRn-41" value="&lt;font style=&quot;font-size: 13px;&quot;&gt;&lt;b&gt;PostreSQL&lt;/b&gt;&lt;/font&gt;" style="shape=cylinder3;whiteSpace=wrap;html=1;boundedLbl=1;backgroundOutline=1;size=15;fillColor=#f8cecc;strokeColor=#b85450;" parent="1" vertex="1">
          <mxGeometry x="1491" y="730" width="70" height="90" as="geometry" />
        </mxCell>
        <mxCell id="m6PdmhpW_ULtBkdn9MRn-42" style="edgeStyle=orthogonalEdgeStyle;rounded=0;orthogonalLoop=1;jettySize=auto;html=1;entryX=0.5;entryY=0;entryDx=0;entryDy=0;entryPerimeter=0;exitX=0.98;exitY=0.382;exitDx=0;exitDy=0;exitPerimeter=0;" parent="1" source="m6PdmhpW_ULtBkdn9MRn-10" target="m6PdmhpW_ULtBkdn9MRn-41" edge="1">
          <mxGeometry relative="1" as="geometry">
            <mxPoint x="1470" y="685.0769230769231" as="sourcePoint" />
          </mxGeometry>
        </mxCell>
        <mxCell id="m6PdmhpW_ULtBkdn9MRn-47" style="edgeStyle=orthogonalEdgeStyle;rounded=0;orthogonalLoop=1;jettySize=auto;html=1;entryX=0.5;entryY=0;entryDx=0;entryDy=0;entryPerimeter=0;strokeWidth=2;flowAnimation=1;exitX=1;exitY=0.75;exitDx=0;exitDy=0;" parent="1" source="m6PdmhpW_ULtBkdn9MRn-12" target="m6PdmhpW_ULtBkdn9MRn-82" edge="1">
          <mxGeometry relative="1" as="geometry">
            <mxPoint x="1540.4999999999995" y="1510" as="targetPoint" />
            <mxPoint x="1471" y="1435.0769230769233" as="sourcePoint" />
          </mxGeometry>
        </mxCell>
        <mxCell id="m6PdmhpW_ULtBkdn9MRn-69" value="TELEGRAM&lt;br&gt;SERVER" style="ellipse;shape=cloud;whiteSpace=wrap;html=1;fillColor=#d5e8d4;strokeColor=#82b366;" parent="1" vertex="1">
          <mxGeometry x="489.5" y="485" width="331" height="200" as="geometry" />
        </mxCell>
        <mxCell id="m6PdmhpW_ULtBkdn9MRn-72" value="&lt;font style=&quot;font-size: 13px;&quot;&gt;&lt;b&gt;PostreSQL&lt;/b&gt;&lt;/font&gt;" style="shape=cylinder3;whiteSpace=wrap;html=1;boundedLbl=1;backgroundOutline=1;size=15;fillColor=#f8cecc;strokeColor=#b85450;" parent="1" vertex="1">
          <mxGeometry x="1491" y="1180" width="70" height="90" as="geometry" />
        </mxCell>
        <mxCell id="m6PdmhpW_ULtBkdn9MRn-73" style="edgeStyle=orthogonalEdgeStyle;rounded=0;orthogonalLoop=1;jettySize=auto;html=1;exitX=0.992;exitY=0.831;exitDx=0;exitDy=0;exitPerimeter=0;startArrow=classic;startFill=1;strokeWidth=2;entryX=0;entryY=0.5;entryDx=0;entryDy=0;flowAnimation=1;fillColor=#f8cecc;strokeColor=#b85450;" parent="1" source="m6PdmhpW_ULtBkdn9MRn-3" target="m6PdmhpW_ULtBkdn9MRn-12" edge="1">
          <mxGeometry relative="1" as="geometry">
            <mxPoint x="1210" y="975" as="sourcePoint" />
            <mxPoint x="1600" y="910" as="targetPoint" />
          </mxGeometry>
        </mxCell>
        <mxCell id="m6PdmhpW_ULtBkdn9MRn-74" value="&lt;b&gt;REST&lt;/b&gt;" style="edgeLabel;html=1;align=center;verticalAlign=middle;resizable=0;points=[];" parent="m6PdmhpW_ULtBkdn9MRn-73" vertex="1" connectable="0">
          <mxGeometry x="-0.2735" y="1" relative="1" as="geometry">
            <mxPoint x="49" y="-14" as="offset" />
          </mxGeometry>
        </mxCell>
        <mxCell id="m6PdmhpW_ULtBkdn9MRn-78" style="edgeStyle=orthogonalEdgeStyle;rounded=0;orthogonalLoop=1;jettySize=auto;html=1;entryX=0;entryY=0.25;entryDx=0;entryDy=0;" parent="1" source="m6PdmhpW_ULtBkdn9MRn-77" target="m6PdmhpW_ULtBkdn9MRn-10" edge="1">
          <mxGeometry relative="1" as="geometry" />
        </mxCell>
        <mxCell id="m6PdmhpW_ULtBkdn9MRn-80" style="edgeStyle=orthogonalEdgeStyle;rounded=0;orthogonalLoop=1;jettySize=auto;html=1;entryX=-0.001;entryY=0.336;entryDx=0;entryDy=0;entryPerimeter=0;" parent="1" source="m6PdmhpW_ULtBkdn9MRn-77" target="m6PdmhpW_ULtBkdn9MRn-12" edge="1">
          <mxGeometry relative="1" as="geometry">
            <mxPoint x="1280" y="1060" as="targetPoint" />
          </mxGeometry>
        </mxCell>
        <mxCell id="m6PdmhpW_ULtBkdn9MRn-81" style="edgeStyle=orthogonalEdgeStyle;rounded=0;orthogonalLoop=1;jettySize=auto;html=1;entryX=0.5;entryY=0;entryDx=0;entryDy=0;" parent="1" source="m6PdmhpW_ULtBkdn9MRn-77" target="m6PdmhpW_ULtBkdn9MRn-3" edge="1">
          <mxGeometry relative="1" as="geometry" />
        </mxCell>
        <mxCell id="m6PdmhpW_ULtBkdn9MRn-77" value="DISCOVERY SERVICE" style="shape=process;whiteSpace=wrap;html=1;backgroundOutline=1;fillColor=#e1d5e7;strokeColor=#9673a6;" parent="1" vertex="1">
          <mxGeometry x="1070" y="510" width="120" height="140" as="geometry" />
        </mxCell>
        <mxCell id="m6PdmhpW_ULtBkdn9MRn-79" style="edgeStyle=orthogonalEdgeStyle;rounded=0;orthogonalLoop=1;jettySize=auto;html=1;entryX=-0.007;entryY=0.297;entryDx=0;entryDy=0;entryPerimeter=0;" parent="1" source="m6PdmhpW_ULtBkdn9MRn-77" target="m6PdmhpW_ULtBkdn9MRn-11" edge="1">
          <mxGeometry relative="1" as="geometry" />
        </mxCell>
        <mxCell id="m6PdmhpW_ULtBkdn9MRn-82" value="&lt;font style=&quot;font-size: 13px;&quot;&gt;&lt;b&gt;PostreSQL&lt;/b&gt;&lt;/font&gt;" style="shape=cylinder3;whiteSpace=wrap;html=1;boundedLbl=1;backgroundOutline=1;size=15;fillColor=#f8cecc;strokeColor=#b85450;" parent="1" vertex="1">
          <mxGeometry x="1491" y="1530" width="70" height="90" as="geometry" />
        </mxCell>
        <mxCell id="m6PdmhpW_ULtBkdn9MRn-85" style="edgeStyle=orthogonalEdgeStyle;rounded=0;orthogonalLoop=1;jettySize=auto;html=1;entryX=0.5;entryY=0;entryDx=0;entryDy=0;dashed=1;startArrow=classic;startFill=1;flowAnimation=1;" parent="1" source="m6PdmhpW_ULtBkdn9MRn-10" target="m6PdmhpW_ULtBkdn9MRn-11" edge="1">
          <mxGeometry relative="1" as="geometry">
            <mxPoint x="1370.04" y="971.47" as="targetPoint" />
          </mxGeometry>
        </mxCell>
        <mxCell id="m6PdmhpW_ULtBkdn9MRn-86" style="edgeStyle=orthogonalEdgeStyle;rounded=0;orthogonalLoop=1;jettySize=auto;html=1;entryX=0.167;entryY=0.007;entryDx=0;entryDy=0;entryPerimeter=0;dashed=1;startArrow=classic;startFill=1;flowAnimation=1;exitX=0.5;exitY=1;exitDx=0;exitDy=0;" parent="1" source="m6PdmhpW_ULtBkdn9MRn-11" edge="1">
          <mxGeometry relative="1" as="geometry">
            <mxPoint x="1370" y="1210" as="sourcePoint" />
            <mxPoint x="1369.55" y="1320" as="targetPoint" />
          </mxGeometry>
        </mxCell>
        <mxCell id="m6PdmhpW_ULtBkdn9MRn-87" value="Actor" style="shape=umlActor;verticalLabelPosition=bottom;verticalAlign=top;html=1;" parent="1" vertex="1">
          <mxGeometry x="130" y="1040" width="30" height="60" as="geometry" />
        </mxCell>
      </root>
    </mxGraphModel>
  </diagram>
</mxfile>
